<svg width="207" height="26" viewBox="0 0 207 26" fill="none" xmlns="http://www.w3.org/2000/svg">
<path d="M8.688 11.112C8.688 12.04 8.368 12.8133 7.728 13.432C7.09867 14.04 6.13333 14.344 4.832 14.344H2.688V19H1.232V7.848H4.832C6.09067 7.848 7.04533 8.152 7.696 8.76C8.35733 9.368 8.688 10.152 8.688 11.112ZM4.832 13.144C5.64267 13.144 6.24 12.968 6.624 12.616C7.008 12.264 7.2 11.7627 7.2 11.112C7.2 9.736 6.41067 9.048 4.832 9.048H2.688V13.144H4.832ZM14.3216 19.144C13.5003 19.144 12.7536 18.9573 12.0816 18.584C11.4203 18.2107 10.8976 17.6827 10.5136 17C10.1403 16.3067 9.95363 15.5067 9.95363 14.6C9.95363 13.704 10.1456 12.9147 10.5296 12.232C10.9243 11.5387 11.4576 11.0107 12.1296 10.648C12.8016 10.2747 13.5536 10.088 14.3856 10.088C15.2176 10.088 15.9696 10.2747 16.6416 10.648C17.3136 11.0107 17.8416 11.5333 18.2256 12.216C18.6203 12.8987 18.8176 13.6933 18.8176 14.6C18.8176 15.5067 18.615 16.3067 18.2096 17C17.815 17.6827 17.2763 18.2107 16.5936 18.584C15.911 18.9573 15.1536 19.144 14.3216 19.144ZM14.3216 17.864C14.8443 17.864 15.335 17.7413 15.7936 17.496C16.2523 17.2507 16.6203 16.8827 16.8976 16.392C17.1856 15.9013 17.3296 15.304 17.3296 14.6C17.3296 13.896 17.191 13.2987 16.9136 12.808C16.6363 12.3173 16.2736 11.9547 15.8256 11.72C15.3776 11.4747 14.8923 11.352 14.3696 11.352C13.8363 11.352 13.3456 11.4747 12.8976 11.72C12.4603 11.9547 12.1083 12.3173 11.8416 12.808C11.575 13.2987 11.4416 13.896 11.4416 14.6C11.4416 15.3147 11.5696 15.9173 11.8256 16.408C12.0923 16.8987 12.4443 17.2667 12.8816 17.512C13.319 17.7467 13.799 17.864 14.3216 17.864ZM32.412 10.232L29.676 19H28.172L26.06 12.04L23.948 19H22.444L19.692 10.232H21.18L23.196 17.592L25.372 10.232H26.86L28.988 17.608L30.972 10.232H32.412ZM41.857 14.28C41.857 14.5573 41.841 14.8507 41.809 15.16H34.801C34.8543 16.024 35.1477 16.7013 35.681 17.192C36.225 17.672 36.881 17.912 37.649 17.912C38.2783 17.912 38.801 17.768 39.217 17.48C39.6437 17.1813 39.9423 16.7867 40.113 16.296H41.681C41.4463 17.1387 40.977 17.8267 40.273 18.36C39.569 18.8827 38.6943 19.144 37.649 19.144C36.817 19.144 36.0703 18.9573 35.409 18.584C34.7583 18.2107 34.2463 17.6827 33.873 17C33.4997 16.3067 33.313 15.5067 33.313 14.6C33.313 13.6933 33.4943 12.8987 33.857 12.216C34.2197 11.5333 34.7263 11.0107 35.377 10.648C36.0383 10.2747 36.7957 10.088 37.649 10.088C38.481 10.088 39.217 10.2693 39.857 10.632C40.497 10.9947 40.9877 11.496 41.329 12.136C41.681 12.7653 41.857 13.48 41.857 14.28ZM40.353 13.976C40.353 13.4213 40.2303 12.9467 39.985 12.552C39.7397 12.1467 39.4037 11.8427 38.977 11.64C38.561 11.4267 38.097 11.32 37.585 11.32C36.849 11.32 36.2197 11.5547 35.697 12.024C35.185 12.4933 34.8917 13.144 34.817 13.976H40.353ZM45.2349 11.656C45.4909 11.1547 45.8535 10.7653 46.3229 10.488C46.8029 10.2107 47.3842 10.072 48.0669 10.072V11.576H47.6829C46.0509 11.576 45.2349 12.4613 45.2349 14.232V19H43.7789V10.232H45.2349V11.656ZM57.7476 14.28C57.7476 14.5573 57.7316 14.8507 57.6996 15.16H50.6916C50.745 16.024 51.0383 16.7013 51.5716 17.192C52.1156 17.672 52.7716 17.912 53.5396 17.912C54.169 17.912 54.6916 17.768 55.1076 17.48C55.5343 17.1813 55.833 16.7867 56.0036 16.296H57.5716C57.337 17.1387 56.8676 17.8267 56.1636 18.36C55.4596 18.8827 54.585 19.144 53.5396 19.144C52.7076 19.144 51.961 18.9573 51.2996 18.584C50.649 18.2107 50.137 17.6827 49.7636 17C49.3903 16.3067 49.2036 15.5067 49.2036 14.6C49.2036 13.6933 49.385 12.8987 49.7476 12.216C50.1103 11.5333 50.617 11.0107 51.2676 10.648C51.929 10.2747 52.6863 10.088 53.5396 10.088C54.3716 10.088 55.1076 10.2693 55.7476 10.632C56.3876 10.9947 56.8783 11.496 57.2196 12.136C57.5716 12.7653 57.7476 13.48 57.7476 14.28ZM56.2436 13.976C56.2436 13.4213 56.121 12.9467 55.8756 12.552C55.6303 12.1467 55.2943 11.8427 54.8676 11.64C54.4516 11.4267 53.9876 11.32 53.4756 11.32C52.7396 11.32 52.1103 11.5547 51.5876 12.024C51.0756 12.4933 50.7823 13.144 50.7076 13.976H56.2436ZM59.1255 14.584C59.1255 13.688 59.3068 12.904 59.6695 12.232C60.0322 11.5493 60.5282 11.0213 61.1575 10.648C61.7975 10.2747 62.5122 10.088 63.3015 10.088C63.9842 10.088 64.6188 10.248 65.2055 10.568C65.7922 10.8773 66.2402 11.288 66.5495 11.8V7.16H68.0215V19H66.5495V17.352C66.2615 17.8747 65.8348 18.3067 65.2695 18.648C64.7042 18.9787 64.0428 19.144 63.2855 19.144C62.5068 19.144 61.7975 18.952 61.1575 18.568C60.5282 18.184 60.0322 17.6453 59.6695 16.952C59.3068 16.2587 59.1255 15.4693 59.1255 14.584ZM66.5495 14.6C66.5495 13.9387 66.4162 13.3627 66.1495 12.872C65.8828 12.3813 65.5202 12.008 65.0615 11.752C64.6135 11.4853 64.1175 11.352 63.5735 11.352C63.0295 11.352 62.5335 11.48 62.0855 11.736C61.6375 11.992 61.2802 12.3653 61.0135 12.856C60.7468 13.3467 60.6135 13.9227 60.6135 14.584C60.6135 15.256 60.7468 15.8427 61.0135 16.344C61.2802 16.8347 61.6375 17.2133 62.0855 17.48C62.5335 17.736 63.0295 17.864 63.5735 17.864C64.1175 17.864 64.6135 17.736 65.0615 17.48C65.5202 17.2133 65.8828 16.8347 66.1495 16.344C66.4162 15.8427 66.5495 15.2613 66.5495 14.6ZM80.3316 13.256C80.737 13.32 81.105 13.4853 81.4356 13.752C81.777 14.0187 82.0436 14.3493 82.2356 14.744C82.4383 15.1387 82.5396 15.56 82.5396 16.008C82.5396 16.5733 82.3956 17.0853 82.1076 17.544C81.8196 17.992 81.3983 18.3493 80.8436 18.616C80.2996 18.872 79.6543 19 78.9076 19H74.7476V7.848H78.7476C79.505 7.848 80.1503 7.976 80.6836 8.232C81.217 8.47733 81.617 8.81333 81.8836 9.24C82.1503 9.66667 82.2836 10.1467 82.2836 10.68C82.2836 11.3413 82.1023 11.8907 81.7396 12.328C81.3876 12.7547 80.9183 13.064 80.3316 13.256ZM76.2036 12.664H78.6516C79.3343 12.664 79.8623 12.504 80.2356 12.184C80.609 11.864 80.7956 11.4213 80.7956 10.856C80.7956 10.2907 80.609 9.848 80.2356 9.528C79.8623 9.208 79.3236 9.048 78.6196 9.048H76.2036V12.664ZM78.7796 17.8C79.505 17.8 80.0703 17.6293 80.4756 17.288C80.881 16.9467 81.0836 16.472 81.0836 15.864C81.0836 15.2453 80.8703 14.76 80.4436 14.408C80.017 14.0453 79.4463 13.864 78.7316 13.864H76.2036V17.8H78.7796ZM92.1121 10.232L86.8321 23.128H85.3281L87.0561 18.904L83.5201 10.232H85.1361L87.8881 17.336L90.6081 10.232H92.1121Z" fill="white"/>
<path d="M102 5.8C102 3.14903 104.149 1 106.8 1H121.2C123.851 1 126 3.14903 126 5.8V20.2C126 22.851 123.851 25 121.2 25H106.8C104.149 25 102 22.851 102 20.2V5.8Z" fill="#E33535"/>
<path d="M120.671 10.9562L106.56 5.56V9.53455L115.701 12.9373L120.671 10.9562Z" fill="white"/>
<path d="M106.86 20.44V17.1072L121.44 11.2956V14.4812L106.86 20.44Z" fill="white"/>
<path d="M145.312 5.33895C143.557 3.8067 141.01 3.00024 138.745 3.00024C135.01 3.00024 130.991 4.74756 130.991 8.96799C130.991 12.4088 133.566 13.6454 136.113 14.425C138.745 15.2314 140.274 15.6884 140.274 17.14C140.274 18.6723 138.972 19.2099 137.5 19.2099C135.915 19.2099 134.132 18.3497 133.17 17.1938L130 20.2583C131.755 22.0056 134.642 23.0002 137.5 23.0002C141.463 23.0002 145.17 21.0379 145.17 16.6562C145.17 12.8658 141.661 11.7637 138.944 10.9304C137.047 10.3658 135.859 9.96261 135.859 8.69917C135.859 7.19379 137.415 6.79057 138.661 6.79057C139.906 6.79057 141.406 7.43573 142.227 8.43035L145.312 5.33895ZM162.741 22.5164V3.48412H157.901V10.6884H150.09V3.48412H145.25V22.5164H150.09V14.5594H157.901V22.5164H162.741ZM181.185 3.48412H175.524L171.251 10.5271L166.977 3.48412H161.118L168.647 14.4519V22.5164H173.487V14.4519L181.185 3.48412ZM192.759 7.40885V3.48412H179.57V22.5164H184.353V15.1239H192.108V11.3336H184.353V7.40885H192.759ZM207 7.40885V3.48412H190.839V7.40885H196.5V22.5164H201.339V7.40885H207Z" fill="white"/>
</svg>
