<svg width="24" height="20" viewBox="0 0 24 20" fill="none" xmlns="http://www.w3.org/2000/svg">
<path d="M14.5712 19.135C14.5712 19.6131 14.955 20 15.4284 20H17.7084C19.7124 20 21.3425 18.3544 21.3425 16.3323C21.3425 16.2695 21.3463 8.47768 21.3463 8.47768L22.62 9.46624C22.7761 9.58711 22.9598 9.64523 23.1423 9.64523C23.3993 9.64523 23.6534 9.52861 23.8221 9.30734C24.1108 8.92891 24.0406 8.38576 23.6656 8.09423L14.2169 0.759604C12.9111 -0.254066 11.0879 -0.252336 9.78309 0.759604L0.334372 8.09423C-0.0406279 8.38558 -0.110845 8.92892 0.177867 9.30734C0.466197 9.68751 1.00538 9.75663 1.37998 9.46624L2.65728 8.47477V16.3318C2.65728 18.3541 4.28738 19.9996 6.29135 19.9996H8.57141C9.04476 19.9996 9.42856 19.6126 9.42856 19.1346V13.9446C9.42856 13.4673 9.81313 13.0796 10.2857 13.0796H13.7143C14.1869 13.0796 14.5715 13.4673 14.5715 13.9446L14.5712 19.135Z" fill="white" fill-opacity="0.4"/>
</svg>
