<svg width="24" height="24" viewBox="0 0 24 24" fill="none" xmlns="http://www.w3.org/2000/svg">
<path d="M14.5712 21.135C14.5712 21.6131 14.955 22 15.4284 22H17.7084C19.7124 22 21.3425 20.3544 21.3425 18.3323C21.3425 18.2695 21.3463 10.4777 21.3463 10.4777L22.62 11.4662C22.7761 11.5871 22.9598 11.6452 23.1423 11.6452C23.3993 11.6452 23.6534 11.5286 23.8221 11.3073C24.1108 10.9289 24.0406 10.3858 23.6656 10.0942L14.2169 2.7596C12.9111 1.74593 11.0879 1.74766 9.78309 2.7596L0.334372 10.0942C-0.0406279 10.3856 -0.110845 10.9289 0.177867 11.3073C0.466197 11.6875 1.00538 11.7566 1.37998 11.4662L2.65728 10.4748V18.3318C2.65728 20.3541 4.28738 21.9996 6.29135 21.9996H8.57141C9.04476 21.9996 9.42856 21.6126 9.42856 21.1346V15.9446C9.42856 15.4673 9.81313 15.0796 10.2857 15.0796H13.7143C14.1869 15.0796 14.5715 15.4673 14.5715 15.9446L14.5712 21.135Z" fill="white" fill-opacity="0.4"/>
</svg>
