<svg width="40" height="40" viewBox="0 0 40 40" fill="none" xmlns="http://www.w3.org/2000/svg">
<circle cx="19.5" cy="20.5" r="13.5" fill="#06030B"/>
<path d="M20 0C8.95209 0 0 8.95209 0 20C0 31.0479 8.95209 40 20 40C31.0479 40 40 31.0479 40 20C40 8.95209 31.0479 0 20 0ZM19.5673 10C20.6346 10 21.4904 10.8654 21.4904 11.9231C21.4904 12.9808 20.625 13.8462 19.5673 13.8462C18.5096 13.8462 17.6442 12.9808 17.6442 11.9231C17.6442 10.8654 18.5 10 19.5673 10ZM23.0769 29.2308H16.9231V28.4615H18.4615V16.9231H16.9231V16.1538H21.5385V28.4615H23.0769V29.2308Z" fill="#FDF41B"/>
</svg>
