<svg width="24" height="24" viewBox="0 0 24 24" fill="none" xmlns="http://www.w3.org/2000/svg">
<rect width="24" height="24" rx="12" fill="#1C1C1C"/>
<path d="M18.6148 18.6148C18.4928 18.7369 18.3479 18.8338 18.1884 18.8999C18.0289 18.966 17.8579 19 17.6853 19C17.5126 19 17.3417 18.966 17.1822 18.8999C17.0227 18.8338 16.8778 18.7369 16.7557 18.6148L14.4356 16.2947C13.4811 16.9056 12.353 17.2711 11.1356 17.2711C7.74698 17.2711 5 14.5241 5 11.1356C5 7.74698 7.74698 5 11.1356 5C14.5241 5 17.2711 7.74698 17.2711 11.1356C17.2711 12.353 16.9056 13.4811 16.2947 14.4356L18.6148 16.7557C18.7369 16.8778 18.8338 17.0227 18.8999 17.1822C18.966 17.3417 19 17.5126 19 17.6853C19 17.8579 18.966 18.0289 18.8999 18.1884C18.8338 18.3479 18.7369 18.4928 18.6148 18.6148ZM11.1356 6.75302C8.71552 6.75302 6.75302 8.71464 6.75302 11.1356C6.75302 13.5565 8.71552 15.5181 11.1356 15.5181C13.5565 15.5181 15.5181 13.5565 15.5181 11.1356C15.5181 8.71464 13.5565 6.75302 11.1356 6.75302Z" fill="#BAFC08"/>
</svg>
