<svg width="27" height="24" viewBox="0 0 27 24" fill="none" xmlns="http://www.w3.org/2000/svg">
<path fill-rule="evenodd" clip-rule="evenodd" d="M26.9957 9.48512L26.9999 14.467C26.9633 14.9414 26.9169 15.4158 26.8606 15.8888C26.8103 16.2785 26.6272 16.6403 26.3408 16.916C26.0544 17.1916 25.6814 17.365 25.2819 17.4082C22.6929 17.6915 20.0139 17.6915 17.4249 17.4082C17.0254 17.365 16.6524 17.1916 16.366 16.916C16.0796 16.6403 15.8965 16.2785 15.8462 15.8888C15.5369 13.3051 15.5369 10.6951 15.8462 8.11143C15.8965 7.72171 16.0796 7.35989 16.366 7.08425C16.6524 6.80862 17.0254 6.63522 17.4249 6.59199C20.0359 6.30918 22.6709 6.30918 25.2819 6.59199C26.1079 6.68137 26.7664 7.32077 26.8606 8.11143C26.9155 8.56795 26.9605 9.02722 26.9957 9.48649V9.48512ZM21.3534 9.93751C20.7937 9.93751 20.2568 10.1548 19.861 10.5416C19.4652 10.9284 19.2428 11.4531 19.2428 12.0001C19.2428 12.5471 19.4652 13.0718 19.861 13.4586C20.2568 13.8454 20.7937 14.0627 21.3534 14.0627C21.9132 14.0627 22.45 13.8454 22.8458 13.4586C23.2416 13.0718 23.464 12.5471 23.464 12.0001C23.464 11.4531 23.2416 10.9284 22.8458 10.5416C22.45 10.1548 21.9132 9.93751 21.3534 9.93751Z" fill="url(#paint0_linear_1392_24040)"/>
<path d="M26.1426 3.80472C26.3607 4.17461 25.9498 4.5885 25.515 4.54175C22.7488 4.24206 19.9571 4.24206 17.1909 4.54175C16.3171 4.63657 15.5017 5.0171 14.877 5.62163C14.2523 6.22615 13.8549 7.0192 13.7492 7.87215C13.421 10.6148 13.421 13.3854 13.7492 16.128C13.8549 16.981 14.2523 17.774 14.877 18.3785C15.5017 18.9831 16.3171 19.3636 17.1909 19.4584C19.9571 19.7582 22.7488 19.7582 25.515 19.4584C25.9526 19.4103 26.3677 19.8283 26.1468 20.201C25.5943 21.1321 24.8246 21.9225 23.9003 22.5079C22.9761 23.0934 21.9235 23.4572 20.8281 23.5699L19.9107 23.6634C15.2521 24.142 10.5534 24.1101 5.90208 23.5685L5.29423 23.4984C4.07499 23.3566 2.93869 22.8223 2.06438 21.9799C1.19007 21.1374 0.627466 20.0345 0.465214 18.8451C-0.155071 14.3019 -0.155071 9.69827 0.465214 5.15503C0.627466 3.96563 1.19007 2.8628 2.06438 2.02032C2.93869 1.17784 4.07499 0.643616 5.29423 0.50182L5.90208 0.431692C10.5534 -0.110206 15.2522 -0.14203 19.9107 0.336813L20.8281 0.431692C21.9235 0.544228 22.976 0.908512 23.8997 1.49476C24.8233 2.081 25.5919 2.87256 26.1426 3.80472Z" fill="url(#paint1_linear_1392_24040)"/>
<defs>
<linearGradient id="paint0_linear_1392_24040" x1="16.2526" y1="6.37988" x2="26.8545" y2="17.7562" gradientUnits="userSpaceOnUse">
<stop stop-color="#E0499B"/>
<stop offset="1" stop-color="#F3DD59"/>
</linearGradient>
<linearGradient id="paint1_linear_1392_24040" x1="1.46938" y1="8.85659e-08" x2="23.9227" y2="25.9754" gradientUnits="userSpaceOnUse">
<stop stop-color="#E0499B"/>
<stop offset="1" stop-color="#F3DD59"/>
</linearGradient>
</defs>
</svg>
