<svg width="32" height="32" viewBox="0 0 32 32" fill="none" xmlns="http://www.w3.org/2000/svg">
<circle cx="16" cy="16" r="16" fill="#6CC1FF"/>
<mask id="mask0_39_821" style="mask-type:alpha" maskUnits="userSpaceOnUse" x="0" y="0" width="32" height="32">
<circle cx="16" cy="16" r="16" fill="#D9D9D9"/>
</mask>
<g mask="url(#mask0_39_821)">
<path fill-rule="evenodd" clip-rule="evenodd" d="M16.0005 32.3935H6.23669C6.12667 27.4016 9.96342 24.5 13.2639 23.4274C13.5251 22.0384 13.4564 20.2232 13.4564 20.2232H15.9867H18.517C18.517 20.2232 18.4483 22.0247 18.7096 23.4274C22.01 24.5138 25.8468 27.4016 25.7367 32.3935H16.0005Z" fill="#E4AE7C"/>
<path fill-rule="evenodd" clip-rule="evenodd" d="M18.5717 22.0112C18.2555 22.6163 17.1416 23.1939 16.0002 23.2076C14.8863 23.2214 13.7449 22.6713 13.4286 22.0937C13.4561 21.6399 13.4698 21.1999 13.4698 20.8698H18.5305C18.5442 21.1861 18.5442 21.5849 18.5717 22.0112Z" fill="#D67F54"/>
<path fill-rule="evenodd" clip-rule="evenodd" d="M10.6232 16.2218C10.5957 15.9605 9.5368 15.658 9.17925 16.5106C8.82171 17.3632 9.46804 18.5734 10.6782 18.6696C11.8884 18.7659 11.5308 18.5459 11.5308 18.5459L10.6232 16.2218Z" fill="#E4AE7C"/>
<path fill-rule="evenodd" clip-rule="evenodd" d="M16.0005 32.3936H15.6429H15.2854H14.9278H14.5703H14.2127H13.8552H13.4976H13.1401H12.7826H12.425H12.0675H11.7099H11.3524H10.9948H10.6098H10.2522H9.89467H9.53713H9.17958H8.82203H8.46449H8.10694H7.72189H7.36434H7.0068H6.64925H6.2917H6.25045C6.15418 28.3506 8.67076 25.6828 11.3661 24.2388C11.4899 24.1701 11.6136 24.1151 11.7237 24.0601C12.2325 23.8125 12.755 23.5925 13.2639 23.4275C13.2776 23.3587 13.2914 23.29 13.3051 23.2212C14.4053 23.7025 16.468 24.2526 18.7096 23.29C18.7233 23.345 18.7233 23.3862 18.7371 23.4412C19.2321 23.6062 19.7547 23.8125 20.2635 24.0601C20.3873 24.1288 20.5248 24.1976 20.6623 24.2663C23.3577 25.7103 25.8605 28.3781 25.7642 32.4211H25.723H25.3654H25.0079H24.6366H24.2791H23.9215H23.564H23.2064H22.8489H22.4913H22.1338H21.7762H21.4187H21.0611H20.7036H20.346H19.961H19.6034H19.2459H18.8883H18.5308H18.1733H17.8157H17.4582H17.1006H16.7431H16.3855H16.0005V32.3936Z" fill="#575756"/>
<path fill-rule="evenodd" clip-rule="evenodd" d="M21.4049 16.2218C21.4324 15.9605 22.4913 15.658 22.8488 16.5106C23.2064 17.3632 22.56 18.5734 21.3499 18.6696C20.1397 18.7659 20.4972 18.5459 20.4972 18.5459L21.4049 16.2218Z" fill="#E4AE7C"/>
<path fill-rule="evenodd" clip-rule="evenodd" d="M16.0004 21.9701C9.71588 22.1213 6.52546 6.60931 16.0004 7.00811C25.4754 6.60931 22.2988 22.1213 16.0004 21.9701Z" fill="#E4AE7C"/>
<path fill-rule="evenodd" clip-rule="evenodd" d="M22.4638 17.1842C22.4638 17.2255 22.4363 17.253 22.3951 17.253C22.3538 17.253 22.3263 17.2255 22.3263 17.1842C22.3263 16.978 22.285 16.8404 22.23 16.7717C22.1888 16.7304 22.1475 16.7029 22.1063 16.7029C22.0513 16.7029 21.9825 16.7167 21.9137 16.7579C21.735 16.8542 21.5424 17.0742 21.4462 17.308C21.3912 17.418 21.3499 17.5418 21.3362 17.6243C21.4462 17.5555 21.5562 17.528 21.6525 17.528C21.7075 17.528 21.7625 17.5555 21.8037 17.583C21.845 17.6105 21.8725 17.6518 21.9 17.7068C21.9275 17.8031 21.9 17.9268 21.8037 18.0781C21.7762 18.1056 21.735 18.1194 21.7075 18.0919C21.68 18.0644 21.6662 18.0231 21.6937 17.9956C21.7625 17.8856 21.79 17.8031 21.7762 17.7343C21.7625 17.7068 21.7487 17.6931 21.735 17.6793C21.7075 17.6656 21.68 17.6518 21.6525 17.6518C21.57 17.6381 21.4599 17.6793 21.3637 17.7756C21.3362 17.8031 21.3224 17.8168 21.2949 17.8168C21.2399 17.8306 21.2124 17.8031 21.1987 17.7481C21.1987 17.7343 21.1987 17.7068 21.1987 17.6656C21.2124 17.5693 21.2674 17.3905 21.3499 17.2393C21.4599 16.978 21.6662 16.7442 21.8725 16.6204C21.955 16.5654 22.0513 16.5379 22.1338 16.5517C22.2163 16.5517 22.2988 16.5929 22.3676 16.6617C22.4088 16.7854 22.4638 16.9367 22.4638 17.1842Z" fill="#D67F54"/>
<path fill-rule="evenodd" clip-rule="evenodd" d="M9.67472 17.1843C9.67472 17.2256 9.64722 17.2531 9.60596 17.2531C9.5647 17.2531 9.5372 17.2256 9.5372 17.1843C9.5372 16.9368 9.57846 16.7855 9.66097 16.6892C9.72973 16.6067 9.79848 16.5792 9.89475 16.5792C9.97726 16.5792 10.0598 16.6067 10.156 16.648C10.3623 16.758 10.5686 17.0055 10.6786 17.2668C10.7474 17.4318 10.8024 17.5969 10.8299 17.6931C10.8299 17.7206 10.8299 17.7481 10.8299 17.7756C10.8161 17.8306 10.7886 17.8581 10.7336 17.8444C10.7061 17.8444 10.6924 17.8306 10.6648 17.8031C10.5686 17.7069 10.4586 17.6656 10.3761 17.6794C10.3486 17.6794 10.3211 17.6931 10.2935 17.7069C10.2798 17.7206 10.266 17.7344 10.2523 17.7619C10.2385 17.8169 10.2523 17.8994 10.3348 18.0232C10.3623 18.0507 10.3486 18.0919 10.3211 18.1194C10.2935 18.1469 10.2523 18.1332 10.2248 18.1057C10.1285 17.9544 10.101 17.8306 10.1285 17.7344C10.1423 17.6794 10.1835 17.6381 10.2248 17.6106C10.266 17.5831 10.3211 17.5694 10.3761 17.5556C10.4723 17.5419 10.5961 17.5694 10.6924 17.6519C10.6648 17.5694 10.6236 17.4456 10.5823 17.3356C10.4861 17.1018 10.2935 16.8818 10.1148 16.7855C10.046 16.7442 9.99101 16.7305 9.92225 16.7305C9.86724 16.7305 9.82599 16.758 9.79848 16.7993C9.71597 16.8405 9.67472 16.978 9.67472 17.1843Z" fill="#D67F54"/>
<path fill-rule="evenodd" clip-rule="evenodd" d="M8.8906 29.5747C8.8906 29.5196 8.93186 29.4784 8.98686 29.4784C9.04187 29.4784 9.08313 29.5196 9.08313 29.5747L9.05562 32.3938C9.05562 32.4488 9.01437 32.49 8.95936 32.49C8.90435 32.49 8.8631 32.4488 8.8631 32.3938L8.8906 29.5747Z" fill="#383546"/>
<path fill-rule="evenodd" clip-rule="evenodd" d="M22.9449 29.5747C22.9449 29.5196 22.9862 29.4784 23.0412 29.4784C23.0962 29.4784 23.1374 29.5196 23.1374 29.5747L23.1099 32.3938C23.1099 32.4488 23.0687 32.49 23.0137 32.49C22.9587 32.49 22.9174 32.4488 22.9174 32.3938L22.9449 29.5747Z" fill="#383546"/>
<path fill-rule="evenodd" clip-rule="evenodd" d="M10.1838 15.0801C10.2663 14.75 10.4038 13.8149 10.4176 13.9524C10.5688 16.8266 11.6827 18.6968 12.7279 19.5219C13.7455 20.3333 12.164 17.5004 15.9045 17.5416C15.9458 17.5416 15.9733 17.5416 16.0145 17.5416C16.042 17.5416 16.0833 17.5416 16.1246 17.5416C19.8788 17.5004 18.2836 20.3333 19.3012 19.5219C20.3326 18.6968 21.4602 16.8128 21.6115 13.9524C21.6253 13.8012 21.7628 14.75 21.8453 15.0801C21.254 18.6555 18.9849 22.0522 16.0283 21.9697C13.0442 22.0522 10.7751 18.6555 10.1838 15.0801Z" fill="#784928"/>
<path fill-rule="evenodd" clip-rule="evenodd" d="M10.4036 16.1255C10.4861 15.9054 10.5273 15.4379 10.5136 14.8328C10.4998 13.9939 11.6687 13.5814 11.5175 12.385C11.1049 8.8645 13.8415 10.0609 15.9868 10.0609V7.00801C10.5411 6.77423 9.28967 11.8211 10.4036 16.1255Z" fill="#784928"/>
<path fill-rule="evenodd" clip-rule="evenodd" d="M21.6256 16.0428C21.5569 15.8091 21.5156 15.3828 21.4881 14.8327C21.4606 13.9938 20.3329 13.5813 20.4842 12.3849C20.8968 8.8644 18.1602 10.0608 16.0149 10.0608V7.00791C21.4331 6.77413 22.6983 11.766 21.6256 16.0428Z" fill="#784928"/>
<path fill-rule="evenodd" clip-rule="evenodd" d="M13.8829 14.764C14.1304 14.9428 14.1992 15.3003 14.0066 15.5479C13.8279 15.7954 13.4703 15.8504 13.2228 15.6716C12.9753 15.4929 12.9065 15.1353 13.099 14.8878C13.2778 14.6403 13.6353 14.5852 13.8829 14.764Z" fill="#20201E"/>
<path fill-rule="evenodd" clip-rule="evenodd" d="M18.1595 14.764C17.912 14.9428 17.857 15.3003 18.0358 15.5479C18.2145 15.7954 18.5721 15.8504 18.8196 15.6716C19.0671 15.4929 19.1222 15.1353 18.9434 14.8878C18.7646 14.6403 18.4071 14.5852 18.1595 14.764Z" fill="#20201E"/>
<path fill-rule="evenodd" clip-rule="evenodd" d="M13.1952 16.813C13.5115 17.0606 13.5252 17.4181 13.2227 17.6244C12.9201 17.8169 12.4113 17.7894 12.095 17.5419C11.7787 17.2944 11.765 16.9368 12.0675 16.7305C12.3701 16.538 12.8789 16.5655 13.1952 16.813Z" fill="#DA9077"/>
<path fill-rule="evenodd" clip-rule="evenodd" d="M18.8473 16.813C18.531 17.0606 18.5172 17.4181 18.8198 17.6244C19.1223 17.8169 19.6311 17.7894 19.9474 17.5419C20.2637 17.2944 20.2775 16.9368 19.9749 16.7305C19.6724 16.538 19.1636 16.5655 18.8473 16.813Z" fill="#DA9077"/>
<path fill-rule="evenodd" clip-rule="evenodd" d="M14.1304 13.2374C14.1029 13.2237 14.0891 13.2237 14.0616 13.2099C13.8141 13.1274 13.6078 13.0999 13.3465 13.1137C13.0852 13.1412 12.8927 13.1962 12.6727 13.3199C12.5764 13.3887 12.1776 13.705 12.2876 13.8288C12.3289 13.8425 12.7277 13.6362 12.8515 13.595C13.0302 13.54 13.1815 13.5262 13.374 13.5262C13.5528 13.54 13.6903 13.5537 13.8553 13.6225C13.8553 13.6225 13.8828 13.6362 13.8966 13.6362C14.2266 13.8013 14.1991 13.8975 14.4192 13.7462C14.763 13.5812 14.4054 13.375 14.1304 13.2374Z" fill="#3F2716"/>
<path fill-rule="evenodd" clip-rule="evenodd" d="M17.8703 13.2374C17.8978 13.2237 17.9116 13.2237 17.9391 13.2099C18.1866 13.1274 18.3929 13.0999 18.6542 13.1137C18.9154 13.1412 19.108 13.1962 19.328 13.3199C19.4243 13.3887 19.8231 13.705 19.713 13.8288C19.6718 13.8425 19.273 13.6362 19.1492 13.595C18.9704 13.54 18.8192 13.5262 18.6267 13.5262C18.4479 13.54 18.3104 13.5537 18.1453 13.6225C18.1453 13.6225 18.1178 13.6362 18.1041 13.6362C17.774 13.8013 17.8015 13.8975 17.5815 13.7462C17.2377 13.5812 17.609 13.375 17.8703 13.2374Z" fill="#3F2716"/>
<path fill-rule="evenodd" clip-rule="evenodd" d="M15.7122 19.9071C15.6847 19.8933 15.671 19.8521 15.6847 19.8108C15.6985 19.7833 15.7397 19.7696 15.781 19.7833C15.8772 19.8383 16.001 19.8658 16.111 19.8658C16.2348 19.8658 16.3448 19.8383 16.4411 19.7833C16.4686 19.7696 16.5098 19.7696 16.5373 19.8108C16.5511 19.8383 16.5511 19.8796 16.5098 19.9071C16.3998 19.9758 16.2485 20.0033 16.111 20.0033C15.9735 20.0171 15.8222 19.9758 15.7122 19.9071Z" fill="#D67F54"/>
<path fill-rule="evenodd" clip-rule="evenodd" d="M15.9594 17.4457C15.9181 17.4457 15.8906 17.4182 15.8906 17.3769C15.8906 17.3357 15.9181 17.3082 15.9594 17.3082C16.1244 17.3082 16.3169 17.3082 16.4682 17.2807C16.592 17.2531 16.6882 17.2256 16.6882 17.1706C16.6882 16.9781 16.4957 15.7542 16.482 15.7542C16.482 15.7129 16.4957 15.6854 16.537 15.6717C16.5782 15.6717 16.6057 15.6854 16.6195 15.7267C16.6195 15.7267 16.8257 16.9644 16.8257 17.1706C16.8257 17.3082 16.6882 17.3907 16.4957 17.4182C16.3169 17.4457 16.1244 17.4457 15.9594 17.4457Z" fill="#D67F54"/>
<path fill-rule="evenodd" clip-rule="evenodd" d="M13.4151 13.4714C13.9652 13.4714 14.474 13.6914 14.8453 14.0627C15.2166 14.434 15.4366 14.9291 15.4366 15.4929C15.4366 16.043 15.2166 16.5518 14.8453 16.9231C14.474 17.2944 13.9789 17.5144 13.4151 17.5144C12.8513 17.5144 12.3562 17.2944 11.9849 16.9231C11.6136 16.5518 11.3936 16.0567 11.3936 15.4929C11.3936 14.9291 11.6136 14.434 11.9849 14.0627C12.3562 13.6914 12.865 13.4714 13.4151 13.4714ZM14.5978 14.2965C14.2952 13.9939 13.8689 13.8014 13.4151 13.8014C12.9476 13.8014 12.535 13.9939 12.2325 14.2965C11.9299 14.599 11.7374 15.0253 11.7374 15.4791C11.7374 15.9467 11.9299 16.3593 12.2325 16.6618C12.535 16.9643 12.9613 17.1569 13.4151 17.1569C13.8827 17.1569 14.2952 16.9643 14.5978 16.6618C14.9003 16.3593 15.0928 15.9329 15.0928 15.4791C15.0928 15.0253 14.9003 14.599 14.5978 14.2965Z" fill="#2E1E11"/>
<path fill-rule="evenodd" clip-rule="evenodd" d="M18.5862 13.4714C19.1501 13.4714 19.6451 13.6914 20.0164 14.0627C20.3877 14.434 20.6078 14.9291 20.6078 15.4929C20.6078 16.043 20.3877 16.5518 20.0164 16.9231C19.6451 17.2944 19.1501 17.5144 18.5862 17.5144C18.0224 17.5144 17.5274 17.2944 17.1561 16.9231C16.7848 16.5518 16.5647 16.0567 16.5647 15.4929C16.5647 14.9291 16.7848 14.434 17.1561 14.0627C17.5274 13.6914 18.0362 13.4714 18.5862 13.4714ZM19.7826 14.2965C19.4801 13.9939 19.0538 13.8014 18.6 13.8014C18.1324 13.8014 17.7199 13.9939 17.4173 14.2965C17.1148 14.599 16.9223 15.0253 16.9223 15.4791C16.9223 15.9467 17.1148 16.3593 17.4173 16.6618C17.7199 16.9643 18.1462 17.1569 18.6 17.1569C19.0676 17.1569 19.4801 16.9643 19.7826 16.6618C20.0852 16.3593 20.2777 15.9329 20.2777 15.4791C20.264 15.0253 20.0852 14.599 19.7826 14.2965Z" fill="#2E1E11"/>
<path fill-rule="evenodd" clip-rule="evenodd" d="M11.5041 15.314C11.5728 15.2865 11.6553 15.3278 11.6828 15.3965C11.7103 15.4653 11.6691 15.5478 11.6003 15.5753L10.4039 16.0016C10.3352 16.0291 10.2526 15.9879 10.2251 15.9191C10.1976 15.8504 10.2389 15.7678 10.3076 15.7403L11.5041 15.314Z" fill="#2E1E11"/>
<path fill-rule="evenodd" clip-rule="evenodd" d="M20.4148 15.5753C20.346 15.5478 20.3048 15.4653 20.3323 15.3965C20.3598 15.3278 20.4423 15.2865 20.511 15.314L21.7074 15.7403C21.7762 15.7678 21.8175 15.8504 21.79 15.9191C21.7625 15.9879 21.6799 16.0291 21.6112 16.0016L20.4148 15.5753Z" fill="#2E1E11"/>
<path fill-rule="evenodd" clip-rule="evenodd" d="M15.2987 15.3278C15.2574 15.3965 15.1749 15.4103 15.1061 15.369C15.0374 15.3278 15.0236 15.2453 15.0649 15.1765C15.0649 15.1765 15.2987 14.7777 16.0138 14.7777C16.7288 14.7777 16.9626 15.1628 16.9626 15.1765C17.0039 15.2453 16.9764 15.3278 16.9214 15.369C16.8526 15.4103 16.7701 15.3828 16.7288 15.3278C16.7288 15.3278 16.5776 15.0665 16.0138 15.0665C15.4499 15.0665 15.2987 15.3278 15.2987 15.3278Z" fill="#2E1E11"/>
<path fill-rule="evenodd" clip-rule="evenodd" d="M18.1459 18.0919C17.2795 18.4082 14.6804 18.3945 13.869 18.1332C14.3091 19.7559 17.7058 19.7284 18.1459 18.0919Z" fill="white"/>
<path fill-rule="evenodd" clip-rule="evenodd" d="M10.6101 10.1434C11.0227 10.2121 11.8203 10.2259 12.2328 10.0746C13.1267 9.60704 14.1168 10.2121 16.0008 10.1984C16.8672 10.1984 19.15 10.0058 19.9338 9.08447C20.3326 8.61691 20.1264 9.42827 19.3563 9.95083C19.8101 10.1159 20.8415 10.3084 21.3915 10.1846C20.5939 8.23186 18.8887 6.88418 16.0008 7.00795C13.1405 6.88418 11.4215 8.21811 10.6101 10.1434Z" fill="#231A11"/>
<path fill-rule="evenodd" clip-rule="evenodd" d="M12.4658 23.6752C12.4658 23.5652 12.562 23.4689 12.6721 23.4689C12.7821 23.4689 12.8783 23.5652 12.8783 23.6752C12.8783 24.9266 13.2909 26.3018 13.9235 27.3469C14.4873 28.2683 15.2299 28.9146 16.0137 28.9146C16.8113 28.9146 17.5539 28.2821 18.1315 27.3607C18.7503 26.3568 19.1491 24.9954 19.1491 23.6752C19.1491 23.5652 19.2454 23.4689 19.3554 23.4689C19.4654 23.4689 19.5617 23.5652 19.5617 23.6752C19.5617 25.0641 19.1491 26.4943 18.4891 27.567C17.8427 28.6121 16.9764 29.3272 16.0275 29.3272C15.0924 29.3272 14.226 28.5984 13.5934 27.5532C12.8921 26.4531 12.4658 24.9954 12.4658 23.6752Z" fill="#D57B19"/>
</g>
</svg>
