<svg width="16" height="16" viewBox="0 0 16 16" fill="none" xmlns="http://www.w3.org/2000/svg">
<path fill-rule="evenodd" clip-rule="evenodd" d="M8 0C3.58465 0 0 3.58465 0 8C0 12.4153 3.58465 16 8 16C12.4153 16 16 12.4153 16 8C16 3.58465 12.4153 0 8 0ZM8.80803 8L11.6897 5.11824C11.9126 4.89541 11.9126 4.53316 11.6897 4.31033C11.4668 4.08738 11.1046 4.08738 10.8818 4.31033L8 7.19197L5.11824 4.31033C4.89541 4.08738 4.53316 4.08738 4.31033 4.31033C4.08738 4.53317 4.08738 4.89541 4.31033 5.11824L7.19197 8L4.31033 10.8818C4.08738 11.1046 4.08738 11.4668 4.31033 11.6897C4.53317 11.9126 4.89541 11.9126 5.11824 11.6897L8 8.80803L10.8818 11.6897C11.1046 11.9126 11.4668 11.9126 11.6897 11.6897C11.9126 11.4668 11.9126 11.1046 11.6897 10.8818L8.80803 8Z" fill="url(#paint0_linear_1840_41120)"/>
<defs>
<linearGradient id="paint0_linear_1840_41120" x1="0.897059" y1="5.90439e-08" x2="16" y2="16" gradientUnits="userSpaceOnUse">
<stop stop-color="#CD4E4E"/>
<stop offset="1" stop-color="#D60000"/>
</linearGradient>
</defs>
</svg>
