<svg width="80" height="80" viewBox="0 0 80 80" fill="none" xmlns="http://www.w3.org/2000/svg">
<circle cx="40" cy="40" r="40" fill="url(#paint0_linear_2077_22594)"/>
<mask id="mask0_2077_22594" style="mask-type:luminance" maskUnits="userSpaceOnUse" x="9" y="28" width="62" height="24">
<path d="M71 28H9V52H71V28Z" fill="white"/>
</mask>
<g mask="url(#mask0_2077_22594)">
<path d="M70.6963 42.2074C70.6963 40.623 70.0916 39.2066 68.947 38.1075C67.8185 37.025 66.2815 36.4775 64.3765 36.4775C62.7567 36.4775 61.3046 37.0167 60.1256 38.0453V34.3042C60.1256 33.6343 59.7475 32.7447 58.6857 32.4357C58.5139 32.3859 58.3157 32.3486 58.0609 32.3175C57.7029 32.2739 57.2054 32.2407 56.5401 32.2179L56.5077 32.2159H56.4754C55.6786 32.2159 55.0759 32.2511 54.631 32.3196C54.178 32.3921 53.8241 32.5249 53.5471 32.6908C52.546 32.2864 51.4277 32.0831 50.2102 32.0831C48.8229 32.0831 47.6561 32.4295 46.7319 33.1117C46.6166 33.0246 46.4851 32.9479 46.3375 32.8816C45.2313 32.3507 43.9633 32.0831 42.5679 32.0831C41.1806 32.0831 40.0138 32.4295 39.0896 33.1117C38.9743 33.0246 38.8428 32.9479 38.6952 32.8816C37.589 32.3507 36.321 32.0831 34.9256 32.0831C33.7244 32.0831 32.6889 32.3424 31.8315 32.8546C31.6171 32.5746 31.4169 32.3382 31.2673 32.1599C31.2106 32.0935 31.1621 32.0354 31.1217 31.9857C30.8648 31.3615 30.4604 30.4614 30.0498 29.7252C29.8395 29.3499 29.6191 28.9994 29.4088 28.7485C29.3036 28.6241 29.1863 28.5058 29.0589 28.425C28.9355 28.3462 28.7394 28.2653 28.523 28.3379C27.8172 28.5784 27.1276 29.128 26.6604 29.7626C26.3166 30.2292 26.0537 30.7995 26.0457 31.3656C25.3823 31.3739 24.8727 31.7016 24.5188 32.0562C24.2114 31.6642 23.815 31.2101 23.4045 30.8306C23.1275 30.5755 22.8302 30.3432 22.5369 30.1918C22.2538 30.0446 21.906 29.9368 21.5683 30.0529C20.5955 30.3847 20.1162 31.3843 19.8958 32.4357C19.6713 33.5078 19.6835 34.7708 19.7987 35.8595C19.8008 35.8761 19.8028 35.9072 19.8048 35.9528C19.8169 36.1498 19.8493 36.6061 19.9504 37.2282C19.192 36.5999 18.1849 36.4775 17.5317 36.4775C16.654 36.4775 15.8067 36.7533 15.0099 37.2967C14.3001 36.7595 13.4386 36.4775 12.4941 36.4775C11.7439 36.4775 9.29688 36.7844 9.29688 40.7288C9.29688 41.4401 9.42833 42.0747 9.68516 42.618C9.91166 43.095 10.2393 43.4745 10.6316 43.7296V49.559C10.6316 50.3221 11.1109 51.2014 12.1847 51.442C12.3465 51.4793 12.5366 51.5063 12.7833 51.527C13.1514 51.5602 13.6711 51.5851 14.3709 51.5996H14.3911H14.4113C15.1171 51.5996 15.6429 51.5851 16.019 51.556C16.2799 51.5353 16.4821 51.5063 16.6561 51.4648C17.7158 51.2139 18.189 50.3367 18.189 49.5777V49.1297C18.3791 49.4242 18.5995 49.7042 18.8462 49.9675C19.8998 51.0936 21.271 51.6867 22.8059 51.6867C24.0517 51.6867 25.0123 51.4088 25.7484 51.0148C26.4562 51.4607 27.2954 51.6867 28.252 51.6867C28.9962 51.6867 29.6717 51.3984 30.2076 50.8758C30.3592 50.9982 30.5311 51.0998 30.7212 51.1786C30.9477 51.274 31.2025 51.3383 31.52 51.3819C31.9225 51.4378 32.4705 51.4648 33.1925 51.4648C33.9145 51.4648 34.4625 51.4378 34.865 51.3819C35.1825 51.3383 35.4373 51.274 35.6638 51.1786C36.4363 50.8551 36.9176 50.15 36.9176 49.3329H37.1097C37.1097 50.1479 37.589 50.8551 38.3635 51.1786C38.59 51.274 38.8449 51.3383 39.1624 51.3819C39.5648 51.4378 40.1128 51.4648 40.8348 51.4648C41.5568 51.4648 42.1048 51.4378 42.5073 51.3819C42.8248 51.3383 43.0796 51.274 43.3061 51.1786C44.0786 50.8551 44.5599 50.15 44.5599 49.3329H44.752C44.752 50.1479 45.2313 50.8551 46.0059 51.1786C46.2324 51.274 46.4872 51.3383 46.8047 51.3819C47.2071 51.4378 47.7552 51.4648 48.4771 51.4648C49.1991 51.4648 49.7471 51.4378 50.1496 51.3819C50.4671 51.3383 50.7219 51.274 50.9484 51.1786C51.7209 50.8551 52.2022 50.15 52.2022 49.3329L52.5662 49.4429C52.5662 49.8576 52.7159 51.2242 54.6351 51.4213C54.9768 51.4565 55.4521 51.4772 56.0851 51.4855H56.0972H56.1093C56.9021 51.4855 57.4926 51.4669 57.9152 51.4295C58.2085 51.4026 58.437 51.3653 58.6332 51.3134C59.4118 51.1019 59.8344 50.5855 60.0164 50.0588C61.2602 51.1392 62.7526 51.6867 64.4615 51.6867C66.1804 51.6867 67.6466 51.3362 68.8216 50.6415C69.2928 50.3844 70.1785 49.6979 70.1785 48.153C70.1785 47.4375 69.9642 46.6723 69.5253 45.8199C70.132 45.0941 70.6963 43.9494 70.6963 42.2074ZM67.6486 46.2451C67.6486 46.2451 67.6507 46.243 67.6527 46.243C67.6547 46.243 67.6587 46.2492 67.6628 46.2513C67.6587 46.2492 67.6527 46.243 67.6486 46.2451Z" fill="#2C1D48"/>
<path d="M64.4639 52.0001C62.8238 52.0001 61.3677 51.5127 60.1321 50.5525C59.8368 51.0751 59.3454 51.4464 58.7145 51.6185C58.5021 51.6765 58.2574 51.7159 57.946 51.745C57.5132 51.7844 56.9146 51.803 56.1118 51.803H56.0855C55.4444 51.7947 54.9611 51.774 54.6092 51.7367C53.2785 51.5998 52.6071 50.903 52.3685 50.1378C52.15 50.7288 51.693 51.2099 51.0661 51.4712C50.8153 51.5749 50.5383 51.6475 50.1945 51.6952C49.7779 51.7533 49.2177 51.7802 48.4796 51.7802C47.7434 51.7802 47.1812 51.7512 46.7646 51.6952C46.4208 51.6475 46.1438 51.577 45.893 51.4712C45.3268 51.2348 44.896 50.8159 44.6574 50.2995C44.4208 50.8159 43.99 51.2348 43.4218 51.4712C43.171 51.5749 42.8939 51.6475 42.5501 51.6952C42.1335 51.7533 41.5734 51.7802 40.8352 51.7802C40.0971 51.7802 39.5369 51.7512 39.1203 51.6952C38.7765 51.6475 38.4994 51.577 38.2487 51.4712C37.6824 51.2348 37.2517 50.8159 37.013 50.2995C36.7764 50.8159 36.3457 51.2348 35.7774 51.4712C35.5267 51.5749 35.2496 51.6475 34.9058 51.6952C34.4892 51.7533 33.929 51.7802 33.1909 51.7802C32.4527 51.7802 31.8926 51.7512 31.476 51.6952C31.1322 51.6475 30.8551 51.577 30.6043 51.4712C30.4729 51.4152 30.3475 51.351 30.2282 51.2742C29.664 51.7512 28.9845 52.0021 28.2504 52.0021C27.306 52.0021 26.4606 51.7906 25.7366 51.3738C24.8913 51.7906 23.9065 52.0021 22.8043 52.0021C21.1844 52.0021 19.7405 51.3738 18.6262 50.1855C18.5676 50.1233 18.5089 50.0569 18.4523 49.9926C18.3087 50.7579 17.7566 51.5252 16.7232 51.7699C16.5331 51.8155 16.3167 51.8466 16.0417 51.8673C15.6574 51.8984 15.1236 51.913 14.4097 51.913H14.3814C13.6554 51.8964 13.1296 51.8715 12.7534 51.8383C12.4946 51.8155 12.2923 51.7865 12.1164 51.7471C10.8787 51.4692 10.3266 50.4468 10.3266 49.5592V43.8915C9.94644 43.6074 9.63096 43.2175 9.41053 42.753C9.14156 42.1682 9 41.4859 9 40.7269C9 38.9414 9.48131 37.6453 10.4338 36.878C11.2023 36.2579 12.0598 36.1646 12.5026 36.1646C13.4309 36.1646 14.3005 36.4259 15.0265 36.9215C15.8213 36.4197 16.6666 36.1646 17.5402 36.1646C18.1125 36.1646 18.8729 36.2496 19.5666 36.6021C19.5342 36.3077 19.518 36.092 19.512 35.9717C19.5099 35.9302 19.5079 35.9054 19.5059 35.8908C19.3684 34.5906 19.4048 33.3401 19.607 32.3695C19.8982 30.9801 20.5454 30.0759 21.4817 29.7566C21.8417 29.6342 22.2461 29.686 22.683 29.9142C22.9701 30.0635 23.2836 30.2937 23.6173 30.6006C23.9813 30.9365 24.3129 31.3057 24.5657 31.6126C24.9338 31.316 25.3443 31.1336 25.7771 31.0755C25.86 30.4637 26.1694 29.9308 26.4323 29.5741C26.9541 28.8669 27.7044 28.2945 28.4405 28.0436C28.6953 27.9565 28.9764 27.998 29.2332 28.1597C29.3728 28.2468 29.5083 28.3733 29.6539 28.5434C29.8581 28.786 30.0785 29.122 30.3293 29.5699C30.8187 30.4492 31.2515 31.4654 31.3991 31.82C31.4254 31.8511 31.4537 31.8843 31.4841 31.9216L31.5124 31.9548C31.6175 32.0792 31.7631 32.2534 31.9249 32.4546C32.7804 32.0004 33.7935 31.7723 34.9402 31.7723C36.3801 31.7723 37.6905 32.0502 38.8392 32.5997C38.9282 32.6391 39.0151 32.6848 39.1001 32.7366C40.0485 32.0958 41.2174 31.7723 42.5805 31.7723C44.0204 31.7723 45.3308 32.0502 46.4795 32.5997C46.5685 32.6391 46.6554 32.6848 46.7404 32.7366C47.6888 32.0958 48.8597 31.7723 50.2208 31.7723C51.42 31.7723 52.5323 31.9672 53.5353 32.3488C53.8407 32.1891 54.1966 32.0751 54.595 32.0128C55.0541 31.9403 55.6729 31.905 56.4859 31.905L56.5607 31.9071C57.2341 31.932 57.7397 31.9651 58.1058 32.0087C58.3747 32.0419 58.5891 32.0813 58.7772 32.1373C60.0027 32.4919 60.4375 33.5267 60.4375 34.3044V37.4109C61.576 36.5939 62.9269 36.1666 64.385 36.1666C66.3689 36.1666 67.9766 36.7432 69.1617 37.8796C70.369 39.0389 71.0081 40.5341 71.0081 42.2055C71.0081 43.6634 70.634 44.8932 69.8958 45.8616C70.2962 46.687 70.4924 47.4398 70.4924 48.1552C70.4924 49.9035 69.4307 50.6708 68.9757 50.9175C67.7542 51.6351 66.2354 52.0001 64.4639 52.0001ZM59.8793 49.5322L60.215 49.8246C61.4021 50.8553 62.8319 51.3779 64.4639 51.3779C66.1283 51.3779 67.5439 51.0399 68.6723 50.3742C69.1273 50.1253 69.8756 49.5157 69.8756 48.1552C69.8756 47.4896 69.6734 46.7741 69.2568 45.9695L69.1597 45.7828L69.2932 45.6231C70.0212 44.748 70.3913 43.597 70.3913 42.2076C70.3913 40.7124 69.819 39.3727 68.737 38.3358C67.6672 37.3093 66.2011 36.7909 64.3749 36.7909C62.844 36.7909 61.4426 37.3072 60.3222 38.284L59.8227 38.7195V34.3044C59.8227 33.7445 59.5032 32.9958 58.6032 32.7366C58.4455 32.691 58.2635 32.6557 58.0249 32.6288C57.675 32.5873 57.1856 32.5541 56.5283 32.5313L56.496 32.5292H56.4737C55.6931 32.5292 55.1046 32.5624 54.6759 32.6308C54.2957 32.691 53.9681 32.803 53.6991 32.9626L53.5717 33.0394L53.4342 32.9834C52.4696 32.5935 51.3836 32.3965 50.2086 32.3965C48.8921 32.3965 47.7819 32.7221 46.9082 33.367L46.7303 33.4998L46.5523 33.367C46.4512 33.2903 46.3379 33.226 46.2186 33.1721C45.1427 32.6578 43.9172 32.3986 42.5683 32.3986C41.2518 32.3986 40.1395 32.7242 39.2679 33.3691L39.09 33.5018L38.912 33.3691C38.8109 33.2924 38.6976 33.2281 38.5783 33.1742C37.5024 32.6599 36.2769 32.4006 34.928 32.4006C33.7854 32.4006 32.7965 32.6453 31.9876 33.1285L31.7591 33.2654L31.5953 33.0518C31.3809 32.7719 31.1767 32.5292 31.0412 32.3675L31.0149 32.3343C30.9684 32.2804 30.9279 32.2327 30.8935 32.1891L30.8632 32.1539L30.845 32.1103C30.7237 31.8138 30.2848 30.7727 29.7894 29.8831C29.5629 29.4766 29.3586 29.1635 29.1827 28.9561C29.0815 28.8358 28.9865 28.7466 28.9016 28.6948C28.7984 28.6284 28.7034 28.6097 28.6205 28.6388C27.9956 28.8524 27.3545 29.3439 26.9055 29.9556C26.5537 30.4326 26.3575 30.9365 26.3514 31.3762L26.3474 31.679L26.0521 31.6831C25.5708 31.6893 25.1279 31.8905 24.7336 32.2845L24.4949 32.523L24.2866 32.2555C23.9327 31.8055 23.5485 31.3824 23.2047 31.0672C22.9115 30.7976 22.6405 30.5985 22.4019 30.4741C22.1147 30.3248 21.8659 30.2833 21.6657 30.3517C20.9357 30.6006 20.4402 31.3264 20.1935 32.5043C20.0034 33.4127 19.971 34.5947 20.1025 35.8307C20.1045 35.8514 20.1065 35.8846 20.1106 35.9302C20.1227 36.1252 20.153 36.569 20.2542 37.1807L20.3876 37.9895L19.7648 37.4731C19.0489 36.88 18.062 36.7909 17.5362 36.7909C16.7192 36.7909 15.9284 37.0501 15.1842 37.5582L15.0063 37.6784L14.8344 37.5478C14.1791 37.0522 13.3722 36.7888 12.4986 36.7888C9.88779 36.7888 9.60669 39.5428 9.60669 40.7269C9.60669 41.3905 9.72803 41.9795 9.96464 42.4793C10.1628 42.8961 10.452 43.2383 10.7999 43.4643L10.9414 43.5556V49.5571C10.9414 50.1959 11.3479 50.9321 12.2559 51.1374C12.4056 51.1705 12.5835 51.1954 12.8161 51.2182C13.1781 51.2514 13.6918 51.2742 14.3854 51.2908H14.4056C15.1155 51.2908 15.6352 51.2763 16.0033 51.2473C16.248 51.2286 16.436 51.2016 16.5958 51.1643C17.4917 50.9528 17.8941 50.2166 17.8941 49.582V48.1055L18.4503 48.9599C18.6323 49.2398 18.8426 49.5074 19.0731 49.7541C20.0701 50.818 21.3624 51.3779 22.8144 51.3779C23.8822 51.3779 24.8266 51.1643 25.6173 50.7413L25.769 50.6604L25.9146 50.7516C26.5739 51.1664 27.3626 51.3779 28.2585 51.3779C28.9157 51.3779 29.5204 51.127 30.0037 50.6521L30.1938 50.4675L30.4001 50.6334C30.5336 50.7392 30.6812 50.8284 30.841 50.8947C31.0432 50.9797 31.2737 51.0378 31.5649 51.0772C31.9532 51.1311 32.4871 51.1581 33.1969 51.1581C33.9068 51.1581 34.4407 51.1311 34.829 51.0772C35.1202 51.0357 35.3507 50.9777 35.5529 50.8947C36.2102 50.621 36.6167 50.0237 36.6167 49.3373V49.0262H37.4155V49.3373C37.4155 50.0237 37.824 50.621 38.4792 50.8947C38.6815 50.9797 38.912 51.0378 39.2032 51.0772C39.5915 51.1311 40.1254 51.1581 40.8352 51.1581C41.545 51.1581 42.0789 51.1311 42.4672 51.0772C42.7584 51.0357 42.989 50.9777 43.1912 50.8947C43.8485 50.621 44.2549 50.0237 44.2549 49.3373V49.0262H45.0538V49.3373C45.0538 50.0237 45.4623 50.621 46.1175 50.8947C46.3197 50.9797 46.5503 51.0378 46.8415 51.0772C47.2298 51.1311 47.7637 51.1581 48.4735 51.1581C49.1833 51.1581 49.7172 51.1311 50.1055 51.0772C50.3967 51.0357 50.6272 50.9777 50.8295 50.8947C51.4867 50.621 51.8932 50.0237 51.8932 49.3373V48.9205L52.8639 49.215V49.4472C52.8639 49.8931 53.0399 50.9507 54.6597 51.1166C54.9934 51.1519 55.4606 51.1705 56.0834 51.1788C56.0875 51.1788 56.0915 51.1788 56.0956 51.1788C56.8924 51.1788 57.4707 51.1602 57.8833 51.1228C58.1583 51.098 58.3707 51.0627 58.5486 51.015C59.2888 50.8138 59.5962 50.3286 59.7236 49.9574L59.8793 49.5322Z" fill="white"/>
<path d="M16.5996 49.8619C16.5996 49.9656 15.9464 50.0174 14.64 50.0174C13.3336 49.9884 12.6804 49.9283 12.6804 49.8412V42.5103H12.1C11.8694 42.5103 11.6874 42.3672 11.5519 42.079C11.4164 41.7928 11.3477 41.4361 11.3477 41.0089C11.3477 39.4204 11.8067 38.624 12.7248 38.624C13.37 38.624 13.9079 38.8273 14.3387 39.2316C14.7694 39.636 14.9838 40.0964 14.9838 40.6107C15.2851 40.0072 15.6896 39.5261 16.1992 39.1653C16.7088 38.8044 17.2285 38.624 17.7604 38.624C18.5936 38.624 19.0951 38.8438 19.267 39.2856C19.3095 39.4038 19.3317 39.5759 19.3317 39.804C19.3317 40.0321 19.263 40.4407 19.1275 41.0296C18.99 41.6186 18.8504 42.0458 18.7068 42.3092C18.5633 42.5746 18.4763 42.7073 18.448 42.7073C18.4197 42.7073 18.2862 42.6513 18.0496 42.5414C17.813 42.4315 17.6006 42.3755 17.4146 42.3755C16.8686 42.3755 16.5976 42.8172 16.5976 43.7007V49.8619H16.5996Z" fill="white"/>
<path d="M21.3368 41.8695C20.9343 41.1333 20.7341 40.534 20.7341 40.0695C20.7341 39.6049 20.8555 39.3084 21.1002 39.1757C21.9172 38.8086 23.0416 38.624 24.4693 38.624C25.8971 38.624 26.9042 38.9662 27.4947 39.6506C28.0832 40.3349 28.3764 41.3469 28.3764 42.6866V46.1747H29.1085C29.3532 46.1747 29.5433 46.3219 29.6788 46.6164C29.8143 46.9109 29.883 47.3153 29.883 47.8296C29.883 48.3439 29.7577 48.852 29.5069 49.3518C29.2561 49.8515 28.9144 50.1025 28.4836 50.1025C27.7091 50.1025 27.0842 49.8889 26.611 49.4617C26.3966 49.2854 26.2308 49.0718 26.1155 48.8209C25.4562 49.6753 24.4289 50.1004 23.0375 50.1004C21.99 50.1004 21.1082 49.7188 20.3903 48.9515C19.6724 48.1863 19.3145 47.2821 19.3145 46.2369C19.3145 43.8375 20.7139 42.6389 23.5128 42.6389H24.6958V42.4191C24.6958 42.0375 24.6352 41.7907 24.5138 41.6787C24.3925 41.5688 24.1073 41.5128 23.6644 41.5128C23.1144 41.517 22.3398 41.6352 21.3368 41.8695ZM23.0578 45.9321C23.0578 46.2556 23.1447 46.5024 23.3166 46.6724C23.4885 46.8425 23.7069 46.9254 23.9739 46.9254C24.2388 46.9254 24.4794 46.8155 24.6958 46.5936V44.8931H24.0932C23.4015 44.8952 23.0578 45.2394 23.0578 45.9321Z" fill="white"/>
<path d="M31.5159 41.7825H30.4603C30.2459 41.7825 30.1367 41.2931 30.1367 40.3142C30.1367 39.3354 30.2439 38.846 30.4603 38.846H31.5159V38.3607C31.5159 36.8012 31.8355 35.7229 32.4745 35.1277C33.1136 34.5325 34.0054 34.2339 35.1541 34.2339C36.3027 34.2339 37.3139 34.4475 38.1896 34.8747C38.3048 34.9182 38.3615 35.0779 38.3615 35.3496C38.3615 35.6213 38.2401 36.0588 37.9954 36.6623C37.7507 37.2658 37.5424 37.6121 37.3705 37.6992C36.8831 37.3902 36.3796 37.2367 35.8639 37.2367C35.3037 37.2367 35.0246 37.6204 35.0246 38.3835V38.8481H36.8103C37.0692 38.8481 37.1986 39.3188 37.1986 40.2603C37.1986 41.291 37.0328 41.8053 36.7032 41.8053H35.326V49.6194C35.326 49.7956 34.691 49.8848 33.421 49.8848C32.1509 49.8848 31.5159 49.7956 31.5159 49.6194V41.7825Z" fill="#F28C43"/>
<path d="M39.1585 41.7825H38.1029C37.8885 41.7825 37.7793 41.2931 37.7793 40.3142C37.7793 39.3354 37.8865 38.846 38.1029 38.846H39.1585V38.3607C39.1585 36.8012 39.478 35.7229 40.1171 35.1277C40.7561 34.5325 41.648 34.2339 42.7966 34.2339C43.9453 34.2339 44.9565 34.4475 45.8321 34.8747C45.9474 34.9182 46.004 35.0779 46.004 35.3496C46.004 35.6213 45.8827 36.0588 45.638 36.6623C45.3933 37.2658 45.185 37.6121 45.0131 37.6992C44.5257 37.3902 44.0222 37.2367 43.5065 37.2367C42.9463 37.2367 42.6672 37.6204 42.6672 38.3835V38.8481H44.4529C44.7118 38.8481 44.8412 39.3188 44.8412 40.2603C44.8412 41.291 44.6754 41.8053 44.3457 41.8053H42.9685V49.6194C42.9685 49.7956 42.3335 49.8848 41.0635 49.8848C39.7935 49.8848 39.1585 49.7956 39.1585 49.6194V41.7825Z" fill="#F28C43"/>
<path d="M46.8011 41.7825H45.7454C45.5311 41.7825 45.4219 41.2931 45.4219 40.3142C45.4219 39.3354 45.5291 38.846 45.7454 38.846H46.8011V38.3607C46.8011 36.8012 47.1206 35.7229 47.7597 35.1277C48.3987 34.5325 49.2906 34.2339 50.4392 34.2339C51.5879 34.2339 52.5991 34.4475 53.4747 34.8747C53.59 34.9182 53.6466 35.0779 53.6466 35.3496C53.6466 35.6213 53.5253 36.0588 53.2806 36.6623C53.0359 37.2658 52.8276 37.6121 52.6557 37.6992C52.1683 37.3902 51.6647 37.2367 51.1491 37.2367C50.5889 37.2367 50.3098 37.6204 50.3098 38.3835V38.8481H52.0955C52.3544 38.8481 52.4838 39.3188 52.4838 40.2603C52.4838 41.291 52.318 41.8053 51.9883 41.8053H50.6111V49.6194C50.6111 49.7956 49.9761 49.8848 48.7061 49.8848C47.4361 49.8848 46.8011 49.7956 46.8011 49.6194V41.7825Z" fill="#F28C43"/>
<path d="M58.5325 49.7067C58.5325 49.8394 57.8004 49.9057 56.3363 49.9057C55.1876 49.8912 54.6133 49.8332 54.6133 49.7295V34.6966C54.6133 34.4767 55.309 34.3647 56.7023 34.3647C57.9218 34.4083 58.5325 34.483 58.5325 34.5846V49.7067Z" fill="white"/>
<path d="M68.1752 49.2873C67.2712 49.8327 66.1084 50.1044 64.6887 50.1044C63.2691 50.1044 62.0698 49.6067 61.0931 48.6134C60.1163 47.62 59.6289 46.2451 59.6289 44.4865C59.6289 42.7279 60.0981 41.3115 61.0385 40.2373C61.9788 39.1631 63.1659 38.626 64.6018 38.626C66.0376 38.626 67.1458 39.0013 67.9285 39.752C68.7111 40.5028 69.1014 41.4152 69.1014 42.4895C69.1014 44.8743 67.7667 46.0647 65.0972 46.0647H63.6129C63.6129 46.5064 63.7302 46.8112 63.9688 46.9813C64.2054 47.1513 64.5532 47.2343 65.0123 47.2343C66.0174 47.2343 66.9719 46.9999 67.8759 46.5271C67.89 46.5126 67.9548 46.6163 68.07 46.8361C68.4138 47.4686 68.5857 48.0016 68.5857 48.4371C68.5837 48.8705 68.4482 49.1546 68.1752 49.2873ZM65.4855 42.9084C65.4855 42.2904 65.1903 41.9814 64.6038 41.9814C64.3308 41.9814 64.0982 42.0664 63.9041 42.2344C63.7099 42.4044 63.6129 42.6512 63.6129 42.9747V43.6591H64.7757C65.2469 43.657 65.4855 43.4081 65.4855 42.9084Z" fill="white"/>
</g>
<defs>
<linearGradient id="paint0_linear_2077_22594" x1="59.5" y1="80" x2="16.5" y2="7.5" gradientUnits="userSpaceOnUse">
<stop stop-color="#FF7523"/>
<stop offset="1" stop-color="#FB923C"/>
</linearGradient>
</defs>
</svg>
