<svg width="120" height="120" viewBox="0 0 120 120" fill="none" xmlns="http://www.w3.org/2000/svg">
<path fill-rule="evenodd" clip-rule="evenodd" d="M39.9205 91.0847V51.1792H29.3573V91.0847H39.9205ZM20.458 99.4985H100.933C101.803 99.4985 102.517 100.217 102.517 101.103V105H18.8637V101.103C18.8637 100.217 19.5779 99.4985 20.458 99.4985ZM25.4363 94.0074H95.954C96.8341 94.0074 97.5484 94.7261 97.5484 95.6117V96.586L23.8517 96.5853V95.6111C23.8517 94.7255 24.5659 94.0074 25.4363 94.0074ZM25.4363 48.2555H95.954C96.8341 48.2555 97.5484 47.5368 97.5484 46.6512V45.6867H23.8517V46.661C23.8517 47.5368 24.5659 48.2555 25.4363 48.2555ZM61.3995 15.3468L87.366 28.6916L103.318 36.8987C104.609 37.558 105.245 38.9752 104.913 40.3824C104.58 41.7897 103.358 42.7542 101.92 42.7542H18.0803C16.633 42.7542 15.4198 41.7897 15.0873 40.3824C14.7548 38.9751 15.3906 37.558 16.6817 36.8987L32.6341 28.6916L58.6005 15.3468C59.5099 14.8844 60.4885 14.8844 61.3978 15.3468H61.3995ZM92.0316 91.0842V51.1787H81.4788V91.0842H92.0316ZM65.9855 91.0842V51.1787H55.4224V91.0842H65.9855Z" fill="#FDF41B"/>
</svg>
