<svg width="16" height="16" viewBox="0 0 16 16" fill="none" xmlns="http://www.w3.org/2000/svg">
<path d="M12.3401 2.5787C12.0925 2.33107 11.7985 2.13463 11.475 2.00061C11.1514 1.86659 10.8047 1.79761 10.4545 1.79761C10.1042 1.79761 9.75748 1.86659 9.43393 2.00061C9.11039 2.13463 8.81641 2.33107 8.56879 2.5787L5.74079 5.40737C5.24068 5.90748 4.95972 6.58578 4.95972 7.29304C4.95972 8.0003 5.24068 8.67859 5.74079 9.1787C6.2409 9.67881 6.91919 9.95977 7.62645 9.95977C8.33371 9.95977 9.01201 9.67881 9.51212 9.1787L9.84679 8.84337C9.84679 8.84337 9.69612 8.42004 9.51212 8.23604C9.32812 8.05137 8.90412 7.9007 8.90412 7.9007L8.56945 8.23604C8.31935 8.48614 7.98015 8.62664 7.62645 8.62664C7.27276 8.62664 6.93355 8.48614 6.68345 8.23604C6.43335 7.98594 6.29285 7.64673 6.29285 7.29304C6.29285 6.93934 6.43335 6.60014 6.68345 6.35004L9.51212 3.52137C9.76222 3.27136 10.1014 3.13094 10.455 3.131C10.8087 3.13107 11.1478 3.27161 11.3978 3.5217C11.6478 3.7718 11.7882 4.11098 11.7882 4.46461C11.7881 4.81824 11.6476 5.15736 11.3975 5.40737L10.9261 5.8787C10.9261 5.8787 11.2528 6.0907 11.4581 6.2967C11.6648 6.5027 11.8688 6.82137 11.8688 6.82137L12.3401 6.35004C12.5878 6.10241 12.7842 5.80844 12.9182 5.48489C13.0522 5.16135 13.1212 4.81457 13.1212 4.46437C13.1212 4.11417 13.0522 3.76739 12.9182 3.44385C12.7842 3.12031 12.5878 2.82633 12.3401 2.5787Z" fill="#00C2FF"/>
<path d="M10.9266 6.82135C10.679 6.57361 10.385 6.37709 10.0613 6.24301C9.73774 6.10893 9.39089 6.03992 9.04061 6.03992C8.69032 6.03992 8.34347 6.10893 8.01987 6.24301C7.69626 6.37709 7.40224 6.57361 7.15461 6.82135L6.79394 7.18268C6.79394 7.18268 6.97261 7.58268 7.15661 7.76601C7.34061 7.95001 7.73661 8.12535 7.73661 8.12535L8.09727 7.76401C8.22111 7.64018 8.36813 7.54195 8.52993 7.47493C8.69173 7.40791 8.86514 7.37341 9.04027 7.37341C9.2154 7.37341 9.38882 7.40791 9.55062 7.47493C9.71242 7.54195 9.85944 7.64018 9.98327 7.76401C10.1071 7.88785 10.2053 8.03487 10.2724 8.19667C10.3394 8.35847 10.3739 8.53188 10.3739 8.70701C10.3739 8.88215 10.3394 9.05556 10.2724 9.21736C10.2053 9.37916 10.1071 9.52618 9.98327 9.65001L7.15461 12.4787C7.03077 12.6025 6.88376 12.7007 6.72198 12.7676C6.5602 12.8346 6.3868 12.8691 6.2117 12.869C5.85807 12.869 5.51895 12.7284 5.26894 12.4783C5.01893 12.2282 4.87851 11.8891 4.87857 11.5354C4.87863 11.1818 5.01917 10.8427 5.26927 10.5927L5.78861 10.0733C5.78861 10.0733 5.45327 9.83401 5.26861 9.65001C5.08527 9.46601 4.84527 9.13068 4.84527 9.13068L4.32661 9.65001C4.07441 9.89658 3.87363 10.1907 3.7359 10.5154C3.59817 10.8401 3.52622 11.1889 3.52421 11.5416C3.52221 11.8943 3.59019 12.2439 3.72422 12.5702C3.85826 12.8964 4.05568 13.1928 4.30505 13.4422C4.55443 13.6917 4.85081 13.8891 5.17703 14.0232C5.50325 14.1573 5.85283 14.2253 6.20552 14.2234C6.55822 14.2215 6.90703 14.1496 7.23175 14.0119C7.55647 13.8742 7.85066 13.6735 8.09727 13.4213L10.9259 10.5927C11.1736 10.3451 11.37 10.0511 11.504 9.72753C11.6381 9.40399 11.707 9.05722 11.707 8.70701C11.707 8.35681 11.6381 8.01004 11.504 7.68649C11.37 7.36295 11.1742 7.06897 10.9266 6.82135Z" fill="#00C2FF"/>
</svg>
