<svg width="60" height="59" viewBox="0 0 60 59" fill="none" xmlns="http://www.w3.org/2000/svg">
<path d="M12.1666 12.162L22.3505 28.7006C25.6179 34.0098 23.8828 40.9093 18.4456 44.1217C12.9948 47.3403 5.92062 45.6186 2.64485 40.3016L12.1666 12.162ZM12.1666 12.162L2.74831 28.553L2.7379 28.5711L2.72675 28.5887C0.533481 32.0615 0.346772 36.5693 2.64473 40.3014L12.1666 12.162Z" fill="#06030B" stroke="#FDF41B" stroke-width="2"/>
<path d="M47.1666 12.162L57.3505 28.7006C60.6179 34.0098 58.8828 40.9093 53.4456 44.1217C47.9948 47.3403 40.9206 45.6186 37.6449 40.3016L47.1666 12.162ZM47.1666 12.162L37.7483 28.553L37.7379 28.5711L37.7267 28.5887C35.5335 32.0615 35.3468 36.5693 37.6447 40.3014L47.1666 12.162Z" fill="#06030B" stroke="#FDF41B" stroke-width="2"/>
<path d="M44.2051 29.2536L44.2052 29.2538C49.6179 38.049 46.721 49.4586 37.7682 54.7478L37.768 54.7479C28.826 60.0281 17.1978 57.225 11.7908 48.4483L11.7906 48.4481C7.98887 42.274 8.30226 34.8165 11.9115 29.0872L26.6131 3.50157L27.4504 2.04433L28.3317 3.47544L44.2051 29.2536Z" fill="#06030B" stroke="#FDF41B" stroke-width="2"/>
<circle cx="39.954" cy="46.7587" r="10.1552" fill="#06030B" stroke="#FDF41B"/>
<circle cx="39.9543" cy="46.7589" r="8.06604" fill="#D9D9D9"/>
<mask id="path-6-inside-1_10_25" fill="white">
<path d="M45.403 43.5954C45.2929 43.4066 45.1728 43.2235 45.0434 43.0474H45.0483C45.1454 42.9643 45.2058 42.8456 45.2159 42.718C45.2256 42.5904 45.1845 42.4639 45.1012 42.3665C44.818 42.0357 44.5038 41.7325 44.1629 41.4612C44.0623 41.3819 43.934 41.3459 43.8067 41.3609C43.6796 41.3761 43.5635 41.4411 43.4842 41.5417C43.4842 41.5417 43.4842 41.5465 43.4784 41.548L43.4787 41.5483C43.2967 41.4264 43.1087 41.3143 42.9152 41.2117C42.9152 41.2077 42.9193 41.2054 42.921 41.2014H42.9207C43.0282 40.9574 42.9178 40.6723 42.6738 40.5648C42.2745 40.3892 41.8594 40.2524 41.4342 40.1561C41.3091 40.1276 41.178 40.1501 41.0697 40.2185C40.961 40.2869 40.8842 40.3955 40.8561 40.5205V40.5375C40.6402 40.5067 40.4229 40.4872 40.205 40.4789V40.4605V40.4602C40.2006 40.3323 40.1457 40.211 40.0523 40.1233C39.9586 40.036 39.8341 39.9891 39.7059 39.9934C39.2704 40.0081 38.8371 40.0641 38.4123 40.161C38.2875 40.1894 38.1792 40.2665 38.111 40.3751C38.0429 40.4835 38.0208 40.6145 38.0495 40.7395C38.0495 40.7476 38.0553 40.7539 38.0567 40.7619C37.8488 40.8278 37.6447 40.9039 37.4449 40.9904C37.4418 40.9821 37.438 40.974 37.4337 40.9663C37.3095 40.7303 37.0178 40.6398 36.7818 40.7637C36.3957 40.966 36.0303 41.2048 35.6902 41.4773C35.4821 41.644 35.4482 41.9475 35.6146 42.1558L35.6365 42.18H35.6362C35.4775 42.3286 35.3266 42.4852 35.184 42.649C35.1759 42.6415 35.1676 42.6346 35.159 42.628C35.0564 42.5516 34.9273 42.5188 34.8005 42.5372C34.6737 42.5556 34.5593 42.6237 34.4829 42.7263C34.2224 43.0758 33.9959 43.4497 33.8067 43.8426C33.6914 44.0826 33.7926 44.3708 34.033 44.4864L34.0669 44.5002L34.0666 44.4999C33.9875 44.7025 33.9194 44.9091 33.8622 45.1186L33.826 45.1097V45.11C33.5647 45.0609 33.3128 45.2319 33.2625 45.4928C33.1812 45.9173 33.1401 46.3484 33.1401 46.7804V46.7879C33.1401 47.0543 33.3565 47.2707 33.623 47.2707H33.661C33.6762 47.488 33.7032 47.7047 33.7415 47.9191C33.7294 47.9191 33.7165 47.9231 33.7044 47.9263V47.9265C33.4471 47.9926 33.2916 48.2545 33.3568 48.5123C33.4675 48.9342 33.619 49.3445 33.809 49.7371C33.8895 49.9038 34.0585 50.0099 34.2437 50.0099C34.3164 50.0096 34.3883 49.9932 34.4538 49.9616L34.4851 49.9446C34.5938 50.132 34.7122 50.3139 34.8393 50.4895L34.8129 50.5105V50.5102C34.7154 50.5936 34.6548 50.712 34.6447 50.8396C34.6346 50.9672 34.6757 51.0936 34.7588 51.1911C35.042 51.5224 35.3559 51.8257 35.6965 52.0972C35.9052 52.2633 36.2088 52.2291 36.3753 52.0208C36.3813 52.0133 36.3868 52.0055 36.3919 51.9975C36.5716 52.1205 36.7576 52.2337 36.9491 52.3369C36.9491 52.345 36.9401 52.353 36.937 52.361C36.8849 52.4783 36.8818 52.6114 36.9281 52.7309C36.9741 52.8505 37.0661 52.9468 37.1833 52.9985C37.5821 53.175 37.9969 53.3123 38.4221 53.4089C38.4574 53.4169 38.4936 53.421 38.5299 53.421C38.7552 53.4204 38.9504 53.2641 38.9999 53.0445V53.0235C39.2152 53.0557 39.4319 53.0767 39.6496 53.0861C39.6493 53.093 39.6493 53.0997 39.6496 53.1063C39.6582 53.3667 39.8721 53.5733 40.1325 53.573H40.1486C40.5841 53.5595 41.0174 53.504 41.4422 53.4072C41.7021 53.3483 41.8651 53.0896 41.8059 52.8295C41.805 52.8249 41.8036 52.8203 41.8018 52.8157C42.0105 52.7519 42.2161 52.6769 42.4167 52.5912L42.4216 52.6016V52.6019C42.4811 52.7154 42.5829 52.8008 42.7054 52.839C42.8275 52.8775 42.9601 52.8654 43.0736 52.8062C43.46 52.6042 43.8257 52.3654 44.166 52.0932C44.3744 51.9271 44.4087 51.6233 44.2425 51.4149C44.2408 51.4126 44.2388 51.4109 44.2367 51.4092C44.3969 51.2603 44.5492 51.1034 44.6932 50.9393L44.699 50.9433H44.6987C44.7818 51.006 44.883 51.0399 44.987 51.0399C45.1397 51.0402 45.2837 50.9683 45.3748 50.8459C45.6356 50.4964 45.8621 50.1231 46.0518 49.7305C46.1671 49.4905 46.0662 49.2025 45.8265 49.0867H45.8224C45.9026 48.8829 45.9719 48.6751 46.0303 48.4639C46.0607 48.47 46.0915 48.4731 46.1228 48.4728C46.3537 48.4723 46.552 48.3084 46.596 48.0817C46.6785 47.654 46.7199 47.2192 46.7199 46.7838V46.77C46.7199 46.5032 46.5037 46.2871 46.237 46.2871C46.2203 46.069 46.1921 45.852 46.1525 45.637C46.4103 45.5689 46.5641 45.3048 46.4963 45.047C46.3853 44.6254 46.2335 44.2152 46.0429 43.8229C45.9282 43.5847 45.6428 43.4832 45.403 43.5953L45.403 43.5954Z"/>
</mask>
<path d="M45.403 43.5954C45.2929 43.4066 45.1728 43.2235 45.0434 43.0474H45.0483C45.1454 42.9643 45.2058 42.8456 45.2159 42.718C45.2256 42.5904 45.1845 42.4639 45.1012 42.3665C44.818 42.0357 44.5038 41.7325 44.1629 41.4612C44.0623 41.3819 43.934 41.3459 43.8067 41.3609C43.6796 41.3761 43.5635 41.4411 43.4842 41.5417C43.4842 41.5417 43.4842 41.5465 43.4784 41.548L43.4787 41.5483C43.2967 41.4264 43.1087 41.3143 42.9152 41.2117C42.9152 41.2077 42.9193 41.2054 42.921 41.2014H42.9207C43.0282 40.9574 42.9178 40.6723 42.6738 40.5648C42.2745 40.3892 41.8594 40.2524 41.4342 40.1561C41.3091 40.1276 41.178 40.1501 41.0697 40.2185C40.961 40.2869 40.8842 40.3955 40.8561 40.5205V40.5375C40.6402 40.5067 40.4229 40.4872 40.205 40.4789V40.4605V40.4602C40.2006 40.3323 40.1457 40.211 40.0523 40.1233C39.9586 40.036 39.8341 39.9891 39.7059 39.9934C39.2704 40.0081 38.8371 40.0641 38.4123 40.161C38.2875 40.1894 38.1792 40.2665 38.111 40.3751C38.0429 40.4835 38.0208 40.6145 38.0495 40.7395C38.0495 40.7476 38.0553 40.7539 38.0567 40.7619C37.8488 40.8278 37.6447 40.9039 37.4449 40.9904C37.4418 40.9821 37.438 40.974 37.4337 40.9663C37.3095 40.7303 37.0178 40.6398 36.7818 40.7637C36.3957 40.966 36.0303 41.2048 35.6902 41.4773C35.4821 41.644 35.4482 41.9475 35.6146 42.1558L35.6365 42.18H35.6362C35.4775 42.3286 35.3266 42.4852 35.184 42.649C35.1759 42.6415 35.1676 42.6346 35.159 42.628C35.0564 42.5516 34.9273 42.5188 34.8005 42.5372C34.6737 42.5556 34.5593 42.6237 34.4829 42.7263C34.2224 43.0758 33.9959 43.4497 33.8067 43.8426C33.6914 44.0826 33.7926 44.3708 34.033 44.4864L34.0669 44.5002L34.0666 44.4999C33.9875 44.7025 33.9194 44.9091 33.8622 45.1186L33.826 45.1097V45.11C33.5647 45.0609 33.3128 45.2319 33.2625 45.4928C33.1812 45.9173 33.1401 46.3484 33.1401 46.7804V46.7879C33.1401 47.0543 33.3565 47.2707 33.623 47.2707H33.661C33.6762 47.488 33.7032 47.7047 33.7415 47.9191C33.7294 47.9191 33.7165 47.9231 33.7044 47.9263V47.9265C33.4471 47.9926 33.2916 48.2545 33.3568 48.5123C33.4675 48.9342 33.619 49.3445 33.809 49.7371C33.8895 49.9038 34.0585 50.0099 34.2437 50.0099C34.3164 50.0096 34.3883 49.9932 34.4538 49.9616L34.4851 49.9446C34.5938 50.132 34.7122 50.3139 34.8393 50.4895L34.8129 50.5105V50.5102C34.7154 50.5936 34.6548 50.712 34.6447 50.8396C34.6346 50.9672 34.6757 51.0936 34.7588 51.1911C35.042 51.5224 35.3559 51.8257 35.6965 52.0972C35.9052 52.2633 36.2088 52.2291 36.3753 52.0208C36.3813 52.0133 36.3868 52.0055 36.3919 51.9975C36.5716 52.1205 36.7576 52.2337 36.9491 52.3369C36.9491 52.345 36.9401 52.353 36.937 52.361C36.8849 52.4783 36.8818 52.6114 36.9281 52.7309C36.9741 52.8505 37.0661 52.9468 37.1833 52.9985C37.5821 53.175 37.9969 53.3123 38.4221 53.4089C38.4574 53.4169 38.4936 53.421 38.5299 53.421C38.7552 53.4204 38.9504 53.2641 38.9999 53.0445V53.0235C39.2152 53.0557 39.4319 53.0767 39.6496 53.0861C39.6493 53.093 39.6493 53.0997 39.6496 53.1063C39.6582 53.3667 39.8721 53.5733 40.1325 53.573H40.1486C40.5841 53.5595 41.0174 53.504 41.4422 53.4072C41.7021 53.3483 41.8651 53.0896 41.8059 52.8295C41.805 52.8249 41.8036 52.8203 41.8018 52.8157C42.0105 52.7519 42.2161 52.6769 42.4167 52.5912L42.4216 52.6016V52.6019C42.4811 52.7154 42.5829 52.8008 42.7054 52.839C42.8275 52.8775 42.9601 52.8654 43.0736 52.8062C43.46 52.6042 43.8257 52.3654 44.166 52.0932C44.3744 51.9271 44.4087 51.6233 44.2425 51.4149C44.2408 51.4126 44.2388 51.4109 44.2367 51.4092C44.3969 51.2603 44.5492 51.1034 44.6932 50.9393L44.699 50.9433H44.6987C44.7818 51.006 44.883 51.0399 44.987 51.0399C45.1397 51.0402 45.2837 50.9683 45.3748 50.8459C45.6356 50.4964 45.8621 50.1231 46.0518 49.7305C46.1671 49.4905 46.0662 49.2025 45.8265 49.0867H45.8224C45.9026 48.8829 45.9719 48.6751 46.0303 48.4639C46.0607 48.47 46.0915 48.4731 46.1228 48.4728C46.3537 48.4723 46.552 48.3084 46.596 48.0817C46.6785 47.654 46.7199 47.2192 46.7199 46.7838V46.77C46.7199 46.5032 46.5037 46.2871 46.237 46.2871C46.2203 46.069 46.1921 45.852 46.1525 45.637C46.4103 45.5689 46.5641 45.3048 46.4963 45.047C46.3853 44.6254 46.2335 44.2152 46.0429 43.8229C45.9282 43.5847 45.6428 43.4832 45.403 43.5953L45.403 43.5954Z" fill="black" stroke="#FDF41B" stroke-width="4" mask="url(#path-6-inside-1_10_25)"/>
</svg>
