<svg width="46" height="46" viewBox="0 0 46 46" fill="none" xmlns="http://www.w3.org/2000/svg">
<path d="M41.2634 32.6313V27.8565C41.2634 26.2994 40.645 24.8061 39.5441 23.7051C38.4429 22.6042 36.9498 21.9855 35.3926 21.9855H24.8592V13.4389C26.9872 12.8362 28.6936 11.2426 29.44 9.16022C30.1863 7.0779 29.8812 4.76319 28.6203 2.94566C27.3596 1.12777 25.2984 0.0310489 23.0867 0.000647395C20.8746 -0.0297244 18.7844 1.0101 17.4739 2.79243C16.1635 4.57441 15.7949 6.87994 16.4836 8.9821C17.1726 11.0842 18.8342 12.7239 20.9452 13.3852V21.9854H10.6075C9.05033 21.9854 7.55729 22.6041 6.45598 23.7051C5.35503 24.806 4.73667 26.2992 4.73667 27.8564V32.636C2.63243 33.3182 0.987206 34.9749 0.319663 37.0835C-0.348187 39.1925 0.0435766 41.4938 1.37178 43.2629C2.69998 45.0319 4.80045 46.0506 7.01188 45.9981C9.22357 45.9455 11.2732 44.8282 12.5161 42.9985C13.7587 41.1683 14.0409 38.8508 13.2737 36.776C12.5066 34.7012 10.7846 33.1246 8.65063 32.5431V27.8564C8.65063 27.3374 8.85676 26.8395 9.22361 26.4726C9.59047 26.1055 10.0884 25.8993 10.6074 25.8993H20.9452V32.6114C18.8341 33.2728 17.1725 34.9125 16.4835 37.0146C15.7948 39.1166 16.1634 41.4222 17.4739 43.2042C18.7843 44.9866 20.8746 46.0264 23.0866 45.996C25.2983 45.9656 27.3596 44.8689 28.6202 43.051C29.8812 41.2335 30.1863 38.9188 29.4399 36.8364C28.6936 34.7541 26.9873 33.1605 24.8591 32.5578V25.8992H35.3925C35.9116 25.8992 36.4095 26.1054 36.7764 26.4726C37.1432 26.8394 37.3493 27.3373 37.3493 27.8563V32.538C35.2154 33.1198 33.4934 34.6964 32.7262 36.7712C31.9591 38.8457 32.2413 41.1631 33.4839 42.9933C34.7268 44.8234 36.7764 45.9407 38.9881 45.9933C41.1994 46.0458 43.2999 45.0271 44.6282 43.2581C45.9565 41.489 46.3482 39.1876 45.6803 37.0787C45.0128 34.9698 43.3675 33.3133 41.2633 32.6312L41.2634 32.6313ZM20.0647 6.85382C20.0647 6.07542 20.3742 5.32877 20.9246 4.77831C21.4751 4.22787 22.2218 3.9187 23.0002 3.9187C23.7786 3.9187 24.5253 4.22788 25.0758 4.77831C25.6263 5.32875 25.9358 6.07544 25.9358 6.85382C25.9358 7.63222 25.6263 8.37887 25.0758 8.92933C24.5253 9.48011 23.7786 9.78929 23.0002 9.78929C22.2218 9.78929 21.4751 9.48011 20.9246 8.92933C20.3742 8.37889 20.0647 7.6322 20.0647 6.85382ZM9.79071 39.1423C9.79071 39.9207 9.48153 40.6673 8.93073 41.2178C8.38027 41.7682 7.63355 42.0774 6.85515 42.0774C6.07672 42.0774 5.33004 41.7682 4.77957 41.2178C4.22911 40.6673 3.91993 39.9207 3.91993 39.1423C3.91993 38.3639 4.22911 37.6172 4.77957 37.0668C5.33003 36.516 6.07674 36.2068 6.85515 36.2068C7.63357 36.2068 8.38025 36.516 8.93073 37.0668C9.48153 37.6172 9.79071 38.3639 9.79071 39.1423ZM25.9355 39.1423C25.9355 39.9207 25.6259 40.6673 25.0755 41.2178C24.525 41.7682 23.7783 42.0774 22.9999 42.0774C22.2215 42.0774 21.4748 41.7682 20.9243 41.2178C20.3739 40.6673 20.0643 39.9207 20.0643 39.1423C20.0643 38.3639 20.3739 37.6172 20.9243 37.0668C21.4748 36.516 22.2215 36.2068 22.9999 36.2068C23.7783 36.2068 24.525 36.516 25.0755 37.0668C25.6259 37.6172 25.9355 38.3639 25.9355 39.1423ZM39.1448 42.0774C38.3664 42.0774 37.6197 41.7682 37.0692 41.2178C36.5184 40.6674 36.2093 39.9207 36.2093 39.1423C36.2093 38.3639 36.5184 37.6172 37.0692 37.0668C37.6197 36.516 38.3664 36.2068 39.1448 36.2068C39.9232 36.2068 40.6699 36.516 41.2204 37.0668C41.7709 37.6172 42.08 38.3639 42.08 39.1423C42.08 39.9207 41.7709 40.6674 41.2204 41.2178C40.6699 41.7683 39.9232 42.0774 39.1448 42.0774Z" fill="#FDF41B"/>
</svg>
