<svg width="120" height="120" viewBox="0 0 120 120" fill="none" xmlns="http://www.w3.org/2000/svg">
<path d="M97.4112 30.2847C97.0886 29.8041 96.7191 29.3556 96.3097 28.9454L81.9897 14.6778C81.5788 14.2699 81.1286 13.9025 80.6455 13.5811V27.9996C80.6455 28.6057 80.8875 29.1866 81.3176 29.6159C81.7478 30.0445 82.3315 30.2848 82.9399 30.2848L97.4112 30.2847Z" fill="#FDF41B"/>
<path d="M82.9406 34.8576C81.1148 34.8576 79.3642 34.1352 78.0738 32.8487C76.7834 31.563 76.0583 29.8188 76.0583 28.0004V12.0551C75.8724 12.0551 75.6888 12 75.5029 12H30.1759C27.7425 12 25.4082 12.9635 23.6876 14.6778C21.9663 16.3929 21 18.7179 21 21.1432V98.8568C21 101.282 21.9663 103.607 23.6876 105.322C25.4082 107.036 27.7425 108 30.1759 108H89.8241C92.2575 108 94.5918 107.036 96.3124 105.322C98.0337 103.607 99 101.282 99 98.8568V35.4101C99 35.2249 98.9562 35.042 98.9447 34.8568L82.9406 34.8576ZM37.0571 28.0004H62.2936C63.5603 28.0004 64.5872 29.0237 64.5872 30.2857C64.5872 31.5484 63.5602 32.5716 62.2936 32.5716H37.0571C35.7905 32.5716 34.7635 31.5484 34.7635 30.2857C34.7635 29.0237 35.7905 28.0004 37.0571 28.0004ZM37.0571 39.4288H62.2936C63.5603 39.4288 64.5872 40.4521 64.5872 41.7148C64.5872 42.9768 63.5602 44.0001 62.2936 44.0001H37.0571C35.7905 44.0001 34.7635 42.9768 34.7635 41.7148C34.7635 40.4521 35.7905 39.4288 37.0571 39.4288ZM84.6514 89.1318C83.7988 91.9521 82.0552 94.4216 79.6802 96.1741C77.3052 97.9267 74.4246 98.868 71.469 98.8573C70.1171 98.8618 68.7721 98.6667 67.4778 98.2795C63.2178 97.006 59.8374 93.7611 58.4033 89.5663C56.9685 85.3724 57.6567 80.746 60.2499 77.146C62.8432 73.5467 67.0217 71.4169 71.4691 71.4282C73.6075 71.429 75.7153 71.9295 77.6248 72.8892C78.7248 73.4754 79.1526 74.8308 78.588 75.9389C78.0227 77.047 76.6731 77.5032 75.5486 76.9644C74.2827 76.33 72.8863 75.9993 71.4692 76.0001C68.5011 75.9879 65.7106 77.4068 63.9792 79.8084C62.2479 82.21 61.7885 85.2981 62.7472 88.096C63.7058 90.8947 65.964 93.0591 68.8083 93.9041C70.545 94.4138 72.393 94.4138 74.1305 93.9041C77.0663 93.0018 79.3629 90.7096 80.2646 87.7831C80.6387 86.5762 81.9238 85.8997 83.1352 86.2724C84.3457 86.6443 85.0247 87.9248 84.6514 89.1318ZM84.5623 79.9022L73.092 91.3306H73.0912C72.1956 92.223 70.7432 92.223 69.8475 91.3306L65.2595 86.7594H65.2587C64.39 85.8624 64.4023 84.4368 65.2872 83.5551C66.172 82.6735 67.603 82.6612 68.5032 83.5276L71.4689 86.4832L81.3177 76.6704C82.2179 75.804 83.6488 75.8163 84.5337 76.6979C85.4186 77.5796 85.4309 79.0053 84.5614 79.9022H84.5623ZM82.94 66.8574H37.0565C35.7899 66.8574 34.7629 65.8342 34.7629 64.5715C34.7629 63.3095 35.7899 62.2862 37.0565 62.2862H82.94C84.2066 62.2862 85.2336 63.3095 85.2336 64.5715C85.2336 65.8342 84.2066 66.8574 82.94 66.8574ZM82.94 55.429H37.0565C35.7899 55.429 34.7629 54.405 34.7629 53.1431C34.7629 51.8811 35.7899 50.8571 37.0565 50.8571H82.94C84.2066 50.8571 85.2336 51.8811 85.2336 53.1431C85.2336 54.405 84.2066 55.429 82.94 55.429Z" fill="#FDF41B"/>
</svg>
