<svg width="80" height="80" viewBox="0 0 80 80" fill="none" xmlns="http://www.w3.org/2000/svg">
<path d="M65.6049 36.16C65.6049 22.5164 54.5685 11.3843 41.1095 11.3843C27.6505 11.3843 16.5469 22.5164 16.5469 36.16C16.5469 45.1202 21.3251 52.9939 28.4582 57.3381L23.1421 68.063H20.9214C19.8446 68.063 18.9701 68.9455 18.9701 70.0312C18.9701 71.1174 19.8451 71.9995 20.9214 71.9995H29.1986C30.2754 71.9995 31.1499 71.1169 31.1499 70.0312C31.1499 68.945 30.2749 68.063 29.1986 68.063H27.449L31.8906 59.0351C34.717 60.189 37.8127 60.868 41.1099 60.868C44.3399 60.868 47.4357 60.189 50.3292 59.0351L54.7708 68.063H53.0212C51.9444 68.063 51.0699 68.9455 51.0699 70.0312C51.0699 71.1174 51.9449 71.9995 53.0212 71.9995H61.2984C62.3752 71.9995 63.2497 71.1169 63.2497 70.0312C63.2497 68.945 62.3747 68.063 61.2984 68.063H59.0777L53.7616 57.3381C60.8272 52.9939 65.6054 45.12 65.6054 36.16H65.6049ZM41.1095 56.9988C38.485 56.9988 35.9952 56.4557 33.6398 55.5731L41.1095 40.504L48.5793 55.5731C46.2237 56.4552 43.734 56.9983 41.1095 56.9983V56.9988ZM51.944 53.8085L42.7919 35.2776C42.1188 33.9878 40.0327 33.9878 39.36 35.2776L30.2074 53.8085C24.3529 50.1432 20.3826 43.6267 20.3826 36.16C20.3826 24.6884 29.6694 15.3212 41.0421 15.3212C52.4149 15.3212 61.7017 24.6886 61.7017 36.16C61.7683 43.6264 57.8651 50.143 51.9436 53.8085H51.944Z" fill="#FDF41B"/>
<path d="M71.8634 24.0773C69.3736 17.6289 64.9997 12.1985 59.2792 8.32945C58.4043 7.71865 57.1932 7.98996 56.6547 8.87254C56.0492 9.75511 56.3182 10.9767 57.1932 11.5874C62.3075 14.9814 66.1434 19.801 68.3642 25.5026C68.6332 26.2493 69.3735 26.7241 70.1813 26.7241C70.3832 26.7241 70.6526 26.6564 70.8545 26.5883C71.729 26.1815 72.2669 25.0954 71.8632 24.0773L71.8634 24.0773Z" fill="#FDF41B"/>
<path d="M14.3929 19.8686C13.4508 19.3933 12.3069 19.7327 11.7684 20.683C9.2786 25.4344 8 30.729 8 36.1594C8 37.2455 8.87498 38.1276 9.95131 38.1276C11.0281 38.1276 11.9026 37.245 11.9026 36.1594C11.9026 31.408 13.0466 26.6566 15.2002 22.5158C15.7386 21.4978 15.3349 20.3439 14.3928 19.8685L14.3929 19.8686Z" fill="#FDF41B"/>
<path d="M29.0636 40.9106C27.5831 40.9106 26.3721 42.1322 26.3721 43.6256C26.3721 45.1189 27.5831 46.3405 29.0636 46.3405C30.5441 46.3405 31.7552 45.1189 31.7552 43.6256C31.6881 42.1327 30.5441 40.9106 29.0636 40.9106Z" fill="#FDF41B"/>
<path d="M53.1545 40.9106C51.674 40.9106 50.4629 42.1322 50.4629 43.6256C50.4629 45.1189 51.674 46.3405 53.1545 46.3405C54.6349 46.3405 55.846 45.1189 55.846 43.6256C55.8465 42.1327 54.6349 40.9106 53.1545 40.9106Z" fill="#FDF41B"/>
<path d="M29.0636 32.2911C30.5441 32.2911 31.7552 31.0696 31.7552 29.5762C31.7552 28.0829 30.5441 26.8613 29.0636 26.8613C27.5831 26.8613 26.3721 28.0829 26.3721 29.5762C26.3721 31.0696 27.516 32.2911 29.0636 32.2911Z" fill="#FDF41B"/>
<path d="M53.1545 32.2911C54.6349 32.2911 55.846 31.0696 55.846 29.5762C55.846 28.0829 54.6349 26.8613 53.1545 26.8613C51.674 26.8613 50.4629 28.0829 50.4629 29.5762C50.4629 31.0696 51.674 32.2911 53.1545 32.2911Z" fill="#FDF41B"/>
<path d="M27.9857 36.567C27.9857 35.0736 26.7746 33.8521 25.2941 33.8521C23.8136 33.8521 22.6025 35.0736 22.6025 36.567C22.6025 38.0603 23.8136 39.2819 25.2941 39.2819C26.7741 39.2819 27.9857 38.128 27.9857 36.567Z" fill="#FDF41B"/>
<path d="M51.9456 36.567C51.9456 35.0736 50.7345 33.8521 49.2541 33.8521C47.7736 33.8521 46.5625 35.0736 46.5625 36.567C46.5625 38.0603 47.7736 39.2819 49.2541 39.2819C50.7341 39.2819 51.9456 38.128 51.9456 36.567Z" fill="#FDF41B"/>
<path d="M35.5897 36.567C35.5897 38.0665 34.3847 39.2819 32.8981 39.2819C31.4115 39.2819 30.2061 38.0665 30.2061 36.567C30.2061 35.0674 31.4115 33.8521 32.8981 33.8521C34.3847 33.8521 35.5897 35.0674 35.5897 36.567Z" fill="#FDF41B"/>
<path d="M59.5491 36.567C59.5491 38.0665 58.3442 39.2819 56.8576 39.2819C55.371 39.2819 54.166 38.0665 54.166 36.567C54.166 35.0674 55.371 33.8521 56.8576 33.8521C58.3442 33.8521 59.5491 35.0674 59.5491 36.567Z" fill="#FDF41B"/>
<path d="M38.418 51.3643C38.418 52.8576 39.629 54.0792 41.1095 54.0792C42.59 54.0792 43.8011 52.8576 43.8011 51.3643C43.8011 49.871 42.59 48.6494 41.1095 48.6494C39.6295 48.6494 38.418 49.8715 38.418 51.3643Z" fill="#FDF41B"/>
</svg>
