<svg width="80" height="80" viewBox="0 0 80 80" fill="none" xmlns="http://www.w3.org/2000/svg">
<path d="M37.014 38.0972L35.3546 37.8615L34.6129 36.3908C34.4067 35.9824 33.99 35.7285 33.5247 35.7285C33.0595 35.7285 32.6423 35.9824 32.4366 36.39L31.6944 37.8611L30.0351 38.0967C29.5746 38.1626 29.2 38.4725 29.0563 38.9051C28.9127 39.3373 29.0303 39.8035 29.3632 40.1219L30.5642 41.2661L30.2812 42.8828C30.2204 43.2284 30.3181 43.5804 30.5477 43.847C30.9062 44.2635 31.5451 44.3892 32.0416 44.1345L33.5264 43.3711L35.0112 44.1345C35.1852 44.2241 35.381 44.272 35.575 44.272C35.9335 44.272 36.2725 44.1175 36.5047 43.8479C36.7343 43.5813 36.8315 43.2293 36.7712 42.8845L36.4873 41.2673L37.6883 40.1223C38.0212 39.8051 38.1393 39.339 37.9956 38.9063C37.8493 38.4728 37.4739 38.1629 37.0138 38.097L37.014 38.0972ZM35.1068 40.4556C34.9241 40.6301 34.8399 40.8823 34.8833 41.129L35.1186 42.4719L33.8863 41.8384C33.773 41.7798 33.6485 41.7509 33.5243 41.7509C33.3998 41.7509 33.2761 41.7802 33.1624 41.8384L31.9301 42.4719L32.1654 41.129C32.2088 40.8823 32.125 40.6306 31.9419 40.4556L30.9449 39.5054L32.3224 39.3101C32.5755 39.2736 32.7947 39.1182 32.908 38.8936L33.5238 37.6722L34.1397 38.8932C34.253 39.1178 34.4722 39.2736 34.7252 39.3101L36.1028 39.5054L35.1068 40.4556Z" fill="#FDF41B"/>
<path d="M48.4889 38.0972L46.8296 37.8615L46.0878 36.3908C45.8816 35.9824 45.465 35.7285 44.9997 35.7285C44.5344 35.7285 44.1182 35.9824 43.9116 36.3908L43.1698 37.8615L41.5097 38.0972C41.05 38.163 40.6746 38.4729 40.5309 38.9055C40.3873 39.3382 40.5049 39.8044 40.8382 40.1223L42.0392 41.2665L41.7554 42.8837C41.695 43.2293 41.7923 43.5813 42.0223 43.8479C42.3812 44.2636 43.0184 44.3901 43.5158 44.1345L44.9997 43.3711L46.4844 44.1345C46.6585 44.2241 46.8542 44.272 47.0487 44.272C47.4072 44.272 47.7457 44.1175 47.9784 43.8479C48.208 43.5813 48.3052 43.2293 48.2449 42.8845L47.9619 41.2674L49.1632 40.1223C49.4957 39.8047 49.6129 39.3386 49.4692 38.9063C49.3238 38.4728 48.9492 38.1629 48.4887 38.0971L48.4889 38.0972ZM46.5818 40.4556C46.3991 40.6301 46.3149 40.8823 46.3583 41.129L46.5935 42.4719L45.3613 41.8384C45.1347 41.7221 44.8643 41.7221 44.6377 41.8384L43.4055 42.4719L43.6408 41.129C43.6842 40.8823 43.6004 40.6306 43.4172 40.4556L42.4198 39.5054L43.7974 39.3101C44.0504 39.2736 44.2696 39.1182 44.3829 38.8932L44.9988 37.6722L45.6147 38.8932C45.728 39.1178 45.9472 39.2736 46.2002 39.3101L47.5778 39.5054L46.5818 40.4556Z" fill="#FDF41B"/>
<path d="M59.9651 38.0972L58.3058 37.8615L57.564 36.3908C57.3579 35.9824 56.9412 35.7285 56.4759 35.7285C56.0106 35.7285 55.5935 35.9824 55.3878 36.39L54.6456 37.8611L52.9862 38.0967C52.5257 38.1626 52.1512 38.4725 52.0075 38.9051C51.8638 39.3373 51.9815 39.8035 52.3144 40.1219L53.5154 41.2661L53.2324 42.8828C53.1716 43.2284 53.2693 43.5804 53.4989 43.847C53.8574 44.2635 54.4958 44.3892 54.9928 44.1345L56.4776 43.3711L57.9624 44.1345C58.1364 44.2241 58.3321 44.272 58.5262 44.272C58.8847 44.272 59.2236 44.1175 59.4559 43.8479C59.6855 43.5813 59.7827 43.2293 59.7223 42.8845L59.4385 41.2673L60.6395 40.1223C60.9724 39.8051 61.0905 39.339 60.9468 38.9063C60.8014 38.4728 60.4259 38.1629 59.965 38.097L59.9651 38.0972ZM58.058 40.4556C57.8753 40.6301 57.7911 40.8823 57.8345 41.129L58.0697 42.4719L56.8375 41.8384C56.7242 41.7798 56.5997 41.7509 56.4755 41.7509C56.351 41.7509 56.2272 41.7802 56.1135 41.8384L54.8813 42.4719L55.1166 41.129C55.16 40.8823 55.0762 40.6306 54.893 40.4556L53.8961 39.5054L55.2736 39.3101C55.5267 39.2736 55.7458 39.1182 55.8591 38.8936L56.475 37.6722L57.0909 38.8932C57.2042 39.1178 57.4234 39.2736 57.6764 39.3101L59.054 39.5054L58.058 40.4556Z" fill="#FDF41B"/>
<path d="M64.7352 24.0002H15.2648C13.4649 24.0002 12 25.4323 12 27.1938V29.062C12 29.7341 12.5577 30.2792 13.2443 30.2792C13.7778 30.2792 14.2118 30.7034 14.2118 31.2256C14.2118 31.7478 13.7778 32.1719 13.2443 32.1719C12.5573 32.1719 12 32.7175 12 33.3892V37.8365C12 38.5086 12.5577 39.0537 13.2443 39.0537C13.7778 39.0537 14.2118 39.4779 14.2118 40.0001C14.2118 40.5228 13.7778 40.9465 13.2443 40.9465C12.5573 40.9465 12 41.492 12 42.1637V46.6111C12 47.2831 12.5577 47.8283 13.2443 47.8283C13.7778 47.8283 14.2118 48.2524 14.2118 48.7746C14.2118 49.2973 13.7778 49.721 13.2443 49.721C12.5573 49.721 12 50.2666 12 50.9382V52.8064C12 54.5679 13.4649 56 15.2648 56H64.7352C66.5351 56 68 54.567 68 52.8064V27.1936C68 25.4321 66.5351 24 64.7352 24V24.0002ZM65.5112 52.8063C65.5112 53.2249 65.1627 53.5654 64.7352 53.5654H24.8882V52.3482C24.8882 51.9283 24.5397 51.5873 24.1104 51.5873C23.6812 51.5873 23.3326 51.9283 23.3326 52.3482V53.5654H15.2649C14.8374 53.5654 14.4889 53.2249 14.4889 52.8063V51.9291C15.7819 51.4391 16.7007 50.2105 16.7007 48.7746C16.7011 47.3387 15.7818 46.1095 14.4889 45.6197V43.1537C15.7819 42.6638 16.7007 41.4351 16.7007 39.9992C16.7011 38.5637 15.7818 37.3354 14.4889 36.8455V34.3795C15.7819 33.8896 16.7007 32.6609 16.7007 31.225C16.7011 29.7891 15.7818 28.5608 14.4889 28.0708V27.1937C14.4889 26.775 14.8374 26.4345 15.2649 26.4345H23.3326V27.6518C23.3326 28.0717 23.6812 28.4126 24.1104 28.4126C24.5397 28.4126 24.8882 28.0717 24.8882 27.6518V26.4345H64.7352C65.1632 26.4345 65.5112 26.7755 65.5112 27.1937V52.8063Z" fill="#FDF41B"/>
<path d="M24.1098 37.1821C23.6806 37.1821 23.332 37.5231 23.332 37.943V42.0591C23.332 42.479 23.6806 42.82 24.1098 42.82C24.5391 42.82 24.8876 42.479 24.8876 42.0591V37.943C24.8876 37.5231 24.5399 37.1821 24.1098 37.1821Z" fill="#FDF41B"/>
<path d="M24.1098 29.979C23.6806 29.979 23.332 30.3199 23.332 30.7398V34.856C23.332 35.2759 23.6806 35.6169 24.1098 35.6169C24.5391 35.6169 24.8876 35.2759 24.8876 34.856V30.7398C24.8876 30.3199 24.5399 29.979 24.1098 29.979Z" fill="#FDF41B"/>
<path d="M24.1098 44.3848C23.6806 44.3848 23.332 44.7257 23.332 45.1456V49.2618C23.332 49.6817 23.6806 50.0226 24.1098 50.0226C24.5391 50.0226 24.8876 49.6817 24.8876 49.2618V45.1456C24.8876 44.7257 24.5399 44.3848 24.1098 44.3848Z" fill="#FDF41B"/>
</svg>
