<svg width="120" height="120" viewBox="0 0 120 120" fill="none" xmlns="http://www.w3.org/2000/svg">
<path fill-rule="evenodd" clip-rule="evenodd" d="M60 110C87.6142 110 110 87.6142 110 60C110 32.3858 87.6142 10 60 10C32.3858 10 10 32.3858 10 60C10 87.6142 32.3858 110 60 110ZM74.2038 75.5748C69.6499 78.168 59.5858 80.423 55.7605 68.6972C55.6222 68.4602 52.5483 54.9304 59.7452 46.5987C59.7664 46.5975 59.8401 46.5131 59.9656 46.3695C61.0438 45.1363 65.9438 39.5315 74.2038 44.682C70.9402 37.6164 60.9292 25.4246 46.9943 33.1817C46.9897 33.1862 46.951 33.2071 46.8813 33.2447L46.8813 33.2447C45.2246 34.1389 26.0576 44.4837 31.7387 69.2611C31.942 70.8279 39.1388 92.149 59.7452 88.9919C60.973 88.7548 70.2191 86.9623 74.2038 75.5748ZM71.5852 34.7602C77.9607 36.9399 90.4156 45.4712 89.2316 62.1579C89.228 62.2078 89.2262 62.2906 89.2238 62.4038V62.404C89.1774 64.5639 88.8929 77.8003 71.5852 85.8349C71.7085 85.5374 72.1083 84.9251 72.6792 84.0509C75.16 80.2519 80.8708 71.5067 81.1484 62.1579C81.1374 62.1579 81.1349 62.0148 81.1302 61.7457V61.7454C81.0856 59.2166 80.8451 45.561 71.5852 34.7602Z" fill="#FDF41B"/>
</svg>
