<svg width="120" height="120" viewBox="0 0 120 120" fill="none" xmlns="http://www.w3.org/2000/svg">
<path d="M28.44 20C23.7876 20 20 23.7876 20 28.44V91.56C20 96.2124 23.7876 100 28.44 100H91.5567C96.2098 100 100 96.2124 100 91.56V28.44C100 23.7876 96.2098 20 91.5567 20H28.44ZM49.1714 45.2294C49.7237 47.1223 49.5503 49.4188 49.1293 51.9316C48.35 56.3812 46.577 61.1657 44.9444 66.0139C44.2039 67.7536 44.2224 69.9915 44.6038 71.7396C45.3104 73.9922 46.1663 75.934 47.4807 72.6937C48.8748 69.0731 50.4774 65.2001 52.7651 61.9456C54.2862 59.869 56.8511 57.582 59.7096 59.2976C61.1095 60.1056 61.716 61.5342 61.9839 63.0617C62.1452 64.3244 62.4035 63.9207 63.6382 62.8136C64.6548 61.7747 65.7091 60.5311 67.2849 59.9929C68.0732 59.7244 69.1465 59.7563 69.9527 60.3277C70.7582 60.8991 71.2486 61.7754 71.6516 62.9336C71.7333 63.2403 71.8934 63.8692 72.8347 62.9278C73.3207 62.4903 73.8334 62.0337 74.3608 61.6357C75.2754 61.0509 76.2621 60.4017 77.4859 60.8296C78.1256 61.0012 78.6332 61.623 78.6383 62.4591C79.8883 61.9144 81.1281 61.2677 82.6479 60.4112C84.6651 59.2735 87.1448 58.2728 89.9611 59.1C91.8303 59.556 91.0089 62.3673 89.1881 61.7448C87.338 61.2014 85.8125 61.7971 84.0038 62.8162C82.1958 63.8353 80.2985 65.3092 77.9044 65.8296C77.0351 66.0171 76.2162 65.3462 76.2329 64.4571C76.2061 64.4501 76.3955 63.371 75.5046 64.262C75.245 64.4827 74.9695 64.7301 74.687 64.9846C73.7514 65.8124 72.5759 66.614 71.7016 66.614C69.71 66.5177 69.5544 65.7958 69.0148 63.7817C68.7329 62.7307 68.15 62.4169 67.243 63.3244C66.1199 64.2447 65.1085 65.2358 64.0453 66.2485C61.6532 67.825 59.9586 66.1248 59.1487 63.1012C58.4529 60.554 57.0447 61.0381 54.9944 63.57C53.0536 66.2428 51.2553 70.5266 50.5888 72.2448C49.7661 74.8603 48.8344 76.4954 47.2463 77.1447C45.6047 77.3296 44.259 77.1026 43.164 75.4846C41.446 72.9272 40.8215 68.6536 42.3993 64.9463C43.6455 61.8851 45.6346 56.1262 46.4114 51.4866C46.8011 49.1633 46.8387 47.0995 46.523 46.0178C46.3311 45.3004 46.0619 44.9464 45.0358 45.0606C40.9324 46.4362 38.5868 50.0931 36.7571 54.734C34.9146 59.4082 33.7143 64.8731 31.648 69.2232C30.9325 71.0733 28.1793 69.7614 29.1646 68.0401C31.0141 64.1454 32.2355 58.6798 34.1927 53.7156C36.1499 48.7513 38.9796 44.1001 44.2539 42.3846C46.5122 41.7794 48.5932 43.4063 49.1703 45.2303L49.1714 45.2294ZM60.9322 44.906L73.2428 44.9169C75.1236 44.8844 75.112 47.7249 73.2319 47.6764L60.9328 47.6656C59.1012 47.6656 59.2657 44.906 60.9328 44.906H60.9322ZM58.686 74.9811L85.5171 74.992C87.3582 74.992 87.3582 77.7541 85.5171 77.7541L58.686 77.7433C56.7091 77.7433 56.9252 74.9811 58.686 74.9811Z" fill="#FDF41B"/>
</svg>
