<svg width="120" height="120" viewBox="0 0 120 120" fill="none" xmlns="http://www.w3.org/2000/svg">
<g clip-path="url(#clip0_49_461)">
<path d="M78.8042 79.2297C75.4256 82.6098 70.8333 84.6456 66.0694 84.9078C64.9188 85.7622 62.0689 87.448 57.4897 87.448C55.5469 87.448 54.1517 86.8328 53.343 85.6198C52.6059 84.5144 52.6402 83.358 52.6352 82.4302C51.273 82.3786 49.5753 83.7813 49.1053 84.2511C48.1902 85.1664 46.7061 85.1664 45.7908 84.2511C44.8755 83.3358 44.8755 81.8519 45.7908 80.9366C46.118 80.6094 49.0853 77.7397 52.4689 77.7397C54.4117 77.7397 55.8069 78.3548 56.6156 79.5678C57.3527 80.6733 57.3184 81.8297 57.3233 82.7577C59.2825 82.8287 61.3905 82.2766 62.7069 81.5239C62.9652 76.7225 64.9573 72.2441 68.3842 68.8159L79.9169 57.2809V42.0937C79.9169 40.7994 78.8675 39.75 77.5731 39.75H62.5106C61.2163 39.75 60.1669 38.7006 60.1669 37.4063V22.3438C60.1669 21.0494 59.1175 20 57.8231 20H22.3438C21.0494 20 20 21.0494 20 22.3438V97.6562C20 98.9506 21.0494 100 22.3438 100H77.573C78.8674 100 79.9167 98.9506 79.9167 97.6562V78.1169C79.2139 78.82 78.8042 79.2297 78.8042 79.2297ZM32.3855 45.1042H42.4272C45.5336 45.2195 45.5313 49.6775 42.4272 49.7917H32.3855C29.2791 49.6764 29.2814 45.2183 32.3855 45.1042ZM32.3855 55.1458H67.5313C70.6377 55.2611 70.6353 59.7191 67.5313 59.8333H32.3855C29.2791 59.718 29.2814 55.26 32.3855 55.1458ZM30.0417 67.5313C30.0417 66.2369 31.0911 65.1875 32.3855 65.1875H57.4897C60.5961 65.3028 60.5938 69.7608 57.4897 69.875H32.3855C31.0909 69.875 30.0417 68.8256 30.0417 67.5313Z" fill="#FDF41B"/>
<path d="M64.854 35.0625H77.5728C77.9293 35.0625 78.2796 35.0897 78.6221 35.1411L64.7753 21.2944C64.8267 21.6369 64.8539 21.9872 64.8539 22.3437V35.0625H64.854Z" fill="#FDF41B"/>
<path d="M98.9936 48.6197C98.3553 47.9809 97.4708 47.6145 96.5669 47.6145C96.3409 47.6145 96.1242 47.7044 95.9645 47.8642L71.6983 72.1306C69.52 74.3098 68.1041 77.0488 67.5859 80.0225C70.5564 79.4936 73.3445 78.0611 75.4886 75.9163C75.4886 75.9163 99.7505 51.6484 99.7505 51.6483C99.9102 51.4886 100 51.2716 100 51.0456C100 50.1438 99.6331 49.2595 98.9936 48.6197Z" fill="#FDF41B"/>
</g>
<defs>
<clipPath id="clip0_49_461">
<rect width="80" height="80" fill="white" transform="translate(20 20)"/>
</clipPath>
</defs>
</svg>
