<svg width="16" height="16" viewBox="0 0 16 16" fill="none" xmlns="http://www.w3.org/2000/svg">
<circle cx="8" cy="8" r="6" fill="white"/>
<path d="M8 0C3.58779 0 0 3.58779 0 8C0 12.4122 3.58779 16 8 16C12.4122 16 16 12.4122 16 8C16 3.58779 12.4122 0 8 0ZM12.6565 5.78626L7.28244 11.1603C7.13744 11.3816 6.90076 11.5192 6.63359 11.5192C6.38175 11.5192 6.12973 11.3893 5.98473 11.1756L3.34347 8.54205C3.19846 8.39705 3.12213 8.20621 3.12213 8.00003C3.12213 7.79384 3.19846 7.60301 3.34347 7.458C3.64114 7.16032 4.12218 7.16032 4.41985 7.458L6.62591 9.66406L11.5799 4.71008C11.7172 4.56508 11.9157 4.48107 12.1142 4.48107C12.3204 4.48107 12.5113 4.56508 12.6563 4.71008C12.8013 4.84742 12.8776 5.03826 12.8776 5.24443C12.8776 5.45061 12.8013 5.64145 12.6563 5.78646L12.6565 5.78626Z" fill="#21DE6C"/>
</svg>
