<svg width="120" height="120" viewBox="0 0 120 120" fill="none" xmlns="http://www.w3.org/2000/svg">
<path d="M91.5385 21H28.4615C25.9522 21 23.5456 21.9968 21.7712 23.7712C19.9968 25.5456 19 27.9522 19 30.4615V90.3846C19 92.894 19.9968 95.3005 21.7712 97.0749C23.5456 98.8493 25.9522 99.8462 28.4615 99.8462H91.5385C94.0478 99.8462 96.4544 98.8493 98.2288 97.0749C100.003 95.3005 101 92.894 101 90.3846V30.4615C101 27.9522 100.003 25.5456 98.2288 23.7712C96.4544 21.9968 94.0478 21 91.5385 21ZM35.0058 53.7527C34.7682 53.1754 34.7073 52.5405 34.8308 51.9285C34.9543 51.3165 35.2567 50.755 35.6996 50.315L45.1612 40.8535C45.7645 40.3368 46.5406 40.0668 47.3343 40.0974C48.1281 40.1281 48.881 40.4572 49.4427 41.0188C50.0044 41.5805 50.3334 42.3335 50.3641 43.1272C50.3948 43.921 50.1248 44.697 49.6081 45.3004L45.5396 49.3846H80.5C81.3365 49.3846 82.1386 49.7169 82.7301 50.3084C83.3216 50.8998 83.6538 51.702 83.6538 52.5385C83.6538 53.3749 83.3216 54.1771 82.7301 54.7686C82.1386 55.36 81.3365 55.6923 80.5 55.6923H37.9231C37.2995 55.6936 36.6896 55.51 36.1703 55.1648C35.6511 54.8196 35.2458 54.3282 35.0058 53.7527ZM85.8773 72.1081L76.4158 81.5696C76.133 81.8998 75.7851 82.1679 75.3938 82.3572C75.0025 82.5465 74.5764 82.6529 74.142 82.6697C73.7077 82.6864 73.2745 82.6133 72.8698 82.4547C72.4651 82.2961 72.0975 82.0556 71.7902 81.7483C71.4828 81.4409 71.2423 81.0733 71.0838 80.6686C70.9252 80.2639 70.852 79.8308 70.8688 79.3964C70.8856 78.9621 70.9919 78.5359 71.1813 78.1446C71.3706 77.7533 71.6387 77.4054 71.9688 77.1227L76.0373 73.0385H41.0769C40.2405 73.0385 39.4383 72.7062 38.8468 72.1147C38.2554 71.5233 37.9231 70.7211 37.9231 69.8846C37.9231 69.0482 38.2554 68.246 38.8468 67.6545C39.4383 67.063 40.2405 66.7308 41.0769 66.7308H83.6538C84.2774 66.7295 84.8873 66.913 85.4066 67.2583C85.9258 67.6035 86.3311 68.0949 86.5712 68.6704C86.8087 69.2477 86.8696 69.8826 86.7461 70.4946C86.6226 71.1065 86.3202 71.6681 85.8773 72.1081Z" fill="#FDF41B"/>
</svg>
