<svg width="120" height="120" viewBox="0 0 120 120" fill="none" xmlns="http://www.w3.org/2000/svg">
<path d="M64.9297 99.0859H12V111H64.9297V99.0859Z" fill="#FDF41B"/>
<path d="M52.3926 75.6484H24.732L18.8721 93.2266H58.2525L52.3926 75.6484Z" fill="#FDF41B"/>
<path d="M38.5631 34.6328C31.0242 34.6328 25.4654 41.6187 27.0932 48.9322L31.726 69.7891H45.4002L50.0328 48.9322C51.6645 41.6027 46.0854 34.6328 38.5631 34.6328Z" fill="#FDF41B"/>
<path fill-rule="evenodd" clip-rule="evenodd" d="M35.6328 11V29.1014L35.6962 29.0907H35.6962C36.64 28.9323 37.5859 28.7734 38.5625 28.7734C49.833 28.7734 58.1994 39.2137 55.7516 50.2053L51.4018 69.7891H56.6156L64.4273 93.2266H70.7891V111H112V11H35.6328ZM79.5 70C90.8218 70 100 60.8218 100 49.5C100 38.1782 90.8218 29 79.5 29C68.1782 29 59 38.1782 59 49.5C59 60.8218 68.1782 70 79.5 70Z" fill="#FDF41B"/>
<path fill-rule="evenodd" clip-rule="evenodd" d="M79.5 64C87.5081 64 94 57.5081 94 49.5C94 41.4919 87.5081 35 79.5 35C71.4919 35 65 41.4919 65 49.5C65 57.5081 71.4919 64 79.5 64ZM86.6357 52.739C87.0211 52.913 87.4391 53 87.8896 53C88.3347 53 88.7446 52.913 89.1191 52.739C89.4991 52.5649 89.8275 52.3232 90.1043 52.0138C90.3866 51.698 90.6065 51.3273 90.7639 50.9019C90.9213 50.4701 91 50.0028 91 49.5C91 48.9908 90.9213 48.5267 90.7639 48.1077C90.6065 47.6823 90.3866 47.3117 90.1043 46.9959C89.8275 46.68 89.4991 46.4351 89.1191 46.261C88.7446 46.087 88.332 46 87.8815 46C87.4364 46 87.0238 46.087 86.6439 46.261C86.2639 46.4351 85.9328 46.68 85.6505 46.9959C85.3682 47.3117 85.1484 47.6823 84.991 48.1077C84.839 48.5331 84.763 48.9972 84.763 49.5C84.763 50.0028 84.839 50.4669 84.991 50.8923C85.1484 51.3177 85.3655 51.6883 85.6423 52.0041C85.9246 52.32 86.2557 52.5649 86.6357 52.739ZM88.5817 51.511C88.37 51.6142 88.1366 51.6657 87.8815 51.6657C87.6264 51.6657 87.3902 51.6142 87.1731 51.511C86.956 51.4079 86.766 51.2597 86.6031 51.0663C86.4457 50.8729 86.3209 50.6441 86.2286 50.3798C86.1417 50.1091 86.0983 49.8158 86.0983 49.5C86.0983 49.1777 86.1417 48.8844 86.2286 48.6202C86.3209 48.3559 86.4484 48.1271 86.6113 47.9337C86.7741 47.7403 86.9614 47.5921 87.1731 47.4889C87.3902 47.3858 87.6264 47.3343 87.8815 47.3343C88.1366 47.3343 88.3727 47.3858 88.5899 47.4889C88.807 47.5921 88.9943 47.7403 89.1517 47.9337C89.3145 48.1271 89.4394 48.3559 89.5262 48.6202C89.6185 48.8844 89.6647 49.1777 89.6647 49.5C89.6647 49.8223 89.6185 50.1156 89.5262 50.3798C89.4394 50.6441 89.3145 50.8729 89.1517 51.0663C88.9888 51.2597 88.7989 51.4079 88.5817 51.511ZM69.4249 46.116H68L70.459 52.884H71.7618L74.2289 46.116H72.918L71.1583 50.9499L69.4249 46.116ZM76.0157 50.0608V51.6271H79.1179V52.884H74.7048V46.116H79.0121V47.3729H76.0157V48.8425H78.6619V50.0608H76.0157ZM81.3481 52.884V47.3923H79.5242V46.116H84.491V47.3923H82.6671V52.884H81.3481Z" fill="#FDF41B"/>
</svg>
