<svg width="120" height="120" viewBox="0 0 120 120" fill="none" xmlns="http://www.w3.org/2000/svg">
<path d="M97.9349 45.4181C97.5054 44.26 96.4305 43.5234 95.1411 43.5234H82.4601V54.3675H85.469C87.0807 54.3675 88.478 55.6307 88.478 57.3154C88.478 58.8944 87.1887 60.2633 85.469 60.2633H34.5317C32.9201 60.2633 31.5228 58.8944 31.5228 57.3154C31.5228 55.7364 32.8121 54.3675 34.5317 54.3675H37.5407V43.5234H24.8597C23.6776 43.5234 22.4955 44.3658 22.0659 45.4181L12.7168 70.6859H107.284L97.9349 45.4181Z" fill="#FDF41B"/>
<path d="M12 76.4043V107.097C12 108.652 13.2855 110 15 110H105C106.607 110 108 108.652 108 107.097V76.4043H12Z" fill="#FDF41B"/>
<path fill-rule="evenodd" clip-rule="evenodd" d="M46.9574 11H73.1458C74.9702 11 76.5797 12.4554 76.4726 14.3269V54.2455H43.5225V14.3269C43.5225 12.4553 45.0258 11 46.9574 11ZM63.604 23.7497C63.868 23.2285 64 22.6216 64 21.9292C64 21.3846 63.917 20.9022 63.7511 20.4821C63.5776 20.0542 63.3324 19.7002 63.0156 19.4201L62.1443 20.202C62.3706 20.4199 62.5365 20.6688 62.6421 20.9489C62.7478 21.229 62.8006 21.5441 62.8006 21.8942C62.8006 22.2987 62.7251 22.6566 62.5743 22.9678C62.4234 23.279 62.2084 23.5202 61.9293 23.6914C61.7534 23.7992 61.561 23.8731 61.3522 23.913V19.0233C61.2843 19.0156 61.2126 19.0117 61.1372 19.0117C61.0618 19.0039 60.9939 19 60.9335 19C60.2999 19 59.7492 19.1361 59.2815 19.4085C58.8138 19.6808 58.4517 20.0542 58.1952 20.5288C57.9387 21.0034 57.8105 21.5441 57.8105 22.1509C57.8105 22.7733 57.9425 23.3296 58.2065 23.8197C58.4705 24.3021 58.8364 24.6833 59.3041 24.9634C59.7643 25.2357 60.2961 25.3719 60.8996 25.3719C61.4955 25.3719 62.0273 25.2318 62.4951 24.9517C62.9628 24.6639 63.3324 24.2632 63.604 23.7497ZM60.413 23.926C60.1864 23.8941 59.9827 23.8276 59.802 23.7264C59.5304 23.5708 59.3192 23.3607 59.1683 23.0962C59.0174 22.8239 58.942 22.5088 58.942 22.1509C58.942 21.8008 59.0174 21.4935 59.1683 21.229C59.3192 20.9567 59.5266 20.7427 59.7907 20.5871C59.9774 20.4771 60.1848 20.4079 60.413 20.3796V23.926ZM64 27.2537C64 27.9383 63.8303 28.4674 63.4908 28.8408C63.1438 29.2142 62.6346 29.401 61.9632 29.401H59.0552V30.4279H57.9236V29.401H56.5431V27.9422H57.9236V26.2734H59.0552V27.9422H61.9293C62.2159 27.9422 62.4385 27.8683 62.5969 27.7205C62.7553 27.5649 62.8345 27.3509 62.8345 27.0786C62.8345 26.7518 62.7515 26.4795 62.5856 26.2617L63.5926 25.8533C63.7284 26.0244 63.8303 26.2345 63.8982 26.4834C63.9661 26.7324 64 26.9891 64 27.2537ZM63.604 36.0241C63.868 35.5262 64 34.9582 64 34.3203C64 33.6745 63.868 33.1027 63.604 32.6048C63.3324 32.0991 62.9628 31.7062 62.4951 31.4261C62.0273 31.1382 61.4955 30.9943 60.8996 30.9943C60.2885 30.9943 59.7529 31.1382 59.2928 31.4261C58.8326 31.7062 58.4705 32.0991 58.2065 32.6048C57.9425 33.1027 57.8105 33.6745 57.8105 34.3203C57.8105 34.9582 57.9425 35.5262 58.2065 36.0241C58.4705 36.522 58.8364 36.9149 59.3041 37.2028C59.7643 37.4906 60.2961 37.6346 60.8996 37.6346C61.4955 37.6346 62.0273 37.4906 62.4951 37.2028C62.9628 36.9149 63.3324 36.522 63.604 36.0241ZM62.5629 33.3633C62.7138 33.6434 62.7892 33.9624 62.7892 34.3203C62.7892 34.6704 62.7138 34.9855 62.5629 35.2655C62.4121 35.5378 62.1933 35.7557 61.9066 35.9191C61.62 36.0824 61.2843 36.1641 60.8996 36.1641C60.5073 36.1641 60.1716 36.0824 59.8925 35.9191C59.6058 35.7557 59.3871 35.5378 59.2362 35.2655C59.0853 34.9855 59.0099 34.6665 59.0099 34.3086C59.0099 33.9585 59.0853 33.6434 59.2362 33.3633C59.3871 33.0832 59.6058 32.8654 59.8925 32.7098C60.1716 32.5464 60.5073 32.4647 60.8996 32.4647C61.2843 32.4647 61.62 32.5464 61.9066 32.7098C62.1933 32.8654 62.4121 33.0832 62.5629 33.3633ZM56 46L63.9208 42.429V40.9352L56 37.3758V38.8929L62.1059 41.6386L56 44.3545V46Z" fill="#FDF41B"/>
</svg>
