<svg width="120" height="120" viewBox="0 0 120 120" fill="none" xmlns="http://www.w3.org/2000/svg">
<path d="M37.956 47.728L28.992 73H21.288L12.324 47.728H18.876L25.14 66.808L31.44 47.728H37.956ZM46.6849 52.66V57.772H54.9289V62.524H46.6849V68.068H56.0089V73H40.5289V47.728H56.0089V52.66H46.6849ZM78.1854 47.728V52.66H71.4894V73H65.3334V52.66H58.6374V47.728H78.1854ZM93.227 73.252C90.851 73.252 88.667 72.7 86.675 71.596C84.707 70.492 83.135 68.956 81.959 66.988C80.807 64.996 80.231 62.764 80.231 60.292C80.231 57.82 80.807 55.6 81.959 53.632C83.135 51.664 84.707 50.128 86.675 49.024C88.667 47.92 90.851 47.368 93.227 47.368C95.603 47.368 97.775 47.92 99.743 49.024C101.735 50.128 103.295 51.664 104.423 53.632C105.575 55.6 106.151 57.82 106.151 60.292C106.151 62.764 105.575 64.996 104.423 66.988C103.271 68.956 101.711 70.492 99.743 71.596C97.775 72.7 95.603 73.252 93.227 73.252ZM93.227 67.636C95.243 67.636 96.851 66.964 98.051 65.62C99.275 64.276 99.887 62.5 99.887 60.292C99.887 58.06 99.275 56.284 98.051 54.964C96.851 53.62 95.243 52.948 93.227 52.948C91.187 52.948 89.555 53.608 88.331 54.928C87.131 56.248 86.531 58.036 86.531 60.292C86.531 62.524 87.131 64.312 88.331 65.656C89.555 66.976 91.187 67.636 93.227 67.636Z" fill="#FDF41B"/>
</svg>
